<svg id="svg" version="1.1" xmlns="http://www.w3.org/2000/svg" xmlns:xlink="http://www.w3.org/1999/xlink" width="400" height="400" viewBox="0, 0, 400,400"><g id="svgg"><path id="path0" d="M89.324 50.081 C 82.546 56.066,75.378 62.411,73.395 64.181 C 71.412 65.952,65.393 71.270,60.020 76.000 C 54.647 80.730,48.480 86.175,46.315 88.100 C 44.150 90.025,42.051 91.600,41.650 91.600 C 40.686 91.600,35.229 88.306,25.281 81.720 C 16.065 75.619,15.699 75.450,12.224 75.671 C 0.288 76.431,0.783 90.294,13.369 107.768 C 15.213 110.328,15.308 110.569,14.624 110.968 C 8.600 114.487,6.942 119.568,9.911 125.405 C 13.225 131.919,19.385 139.391,25.263 144.028 C 28.333 146.450,28.833 147.005,28.600 147.738 C 26.642 153.912,27.107 156.278,31.102 160.482 C 37.703 167.427,49.629 174.489,59.292 177.174 C 62.146 177.967,62.211 178.159,61.215 182.889 C 59.550 190.795,56.353 198.316,51.722 205.217 C 21.709 249.953,37.310 311.360,85.340 337.536 C 99.573 345.293,123.273 350.612,149.800 352.002 C 171.071 353.116,183.540 359.994,196.340 377.674 C 200.236 383.054,199.845 383.045,203.474 377.849 C 210.679 367.534,217.254 361.778,227.255 357.029 C 234.660 353.513,238.790 352.730,255.982 351.580 C 268.191 350.763,283.291 348.297,295.000 345.207 C 355.237 329.313,382.887 257.503,348.650 205.869 C 342.837 197.101,338.472 186.108,338.259 179.695 L 338.200 177.930 342.600 176.375 C 361.980 169.529,375.648 156.632,371.400 149.200 C 370.386 147.427,370.687 146.908,374.439 143.947 C 382.368 137.693,391.158 125.310,391.191 120.350 C 391.212 117.027,389.165 113.516,386.186 111.771 C 383.978 110.477,383.915 110.888,386.985 106.600 C 395.672 94.470,398.313 83.328,393.642 78.518 C 388.991 73.730,385.691 74.226,374.934 81.331 C 365.862 87.323,358.862 91.600,358.128 91.600 C 357.619 91.600,354.651 89.065,341.985 77.811 C 339.006 75.165,334.516 71.200,332.005 69.000 C 329.495 66.800,325.620 63.380,323.395 61.400 C 321.169 59.420,317.380 56.067,314.974 53.948 C 312.568 51.829,307.822 47.644,304.427 44.648 C 297.229 38.295,298.082 38.562,294.800 41.633 C 266.746 67.882,231.968 68.287,204.238 42.687 C 199.687 38.485,200.257 38.517,196.263 42.245 C 168.886 67.792,133.558 68.004,106.330 42.785 C 104.201 40.813,102.277 39.200,102.054 39.200 C 101.831 39.200,96.102 44.097,89.324 50.081 M105.728 61.118 C 132.904 80.365,166.896 80.935,194.030 62.597 C 199.867 58.653,199.971 58.653,205.959 62.590 C 233.330 80.587,265.731 80.436,292.632 62.186 C 295.377 60.324,297.813 58.800,298.044 58.800 C 298.498 58.800,300.338 60.397,323.396 80.800 C 331.725 88.170,339.490 95.010,340.650 96.000 C 341.811 96.990,342.724 98.070,342.680 98.400 C 342.609 98.929,337.707 100.797,333.917 101.738 C 332.711 102.037,333.229 102.453,317.406 88.481 C 312.847 84.455,308.911 81.230,308.658 81.314 C 308.332 81.422,308.142 85.150,308.000 94.233 L 307.800 107.000 286.313 107.103 L 264.827 107.207 264.713 111.489 L 264.600 115.771 261.600 116.631 C 248.617 120.353,241.964 126.381,238.014 138.000 C 235.925 144.148,228.116 158.400,226.837 158.400 C 226.467 158.400,226.088 157.403,223.375 149.292 L 221.600 143.985 221.600 125.592 L 221.600 107.200 200.000 107.200 L 178.400 107.200 178.400 124.900 L 178.400 142.600 175.760 150.520 C 174.135 155.397,172.943 158.382,172.660 158.290 C 171.115 157.787,164.400 145.795,162.194 139.600 C 157.605 126.709,152.569 121.622,140.200 117.387 L 135.400 115.743 135.287 111.475 L 135.173 107.207 113.687 107.103 L 92.200 107.000 92.094 94.100 C 91.972 79.109,92.304 79.877,87.703 83.939 C 85.996 85.446,82.890 88.183,80.800 90.023 C 78.710 91.862,74.784 95.321,72.075 97.710 C 66.464 102.659,67.467 102.423,60.900 100.337 C 55.656 98.672,54.932 99.863,68.426 87.954 C 72.511 84.349,81.043 76.810,87.387 71.200 C 93.731 65.590,99.479 60.508,100.160 59.906 C 101.833 58.431,101.979 58.463,105.728 61.118 M174.800 82.257 C 165.391 85.280,148.271 86.482,138.481 84.807 C 134.994 84.211,135.200 83.507,135.200 96.024 L 135.200 107.200 156.800 107.200 L 178.400 107.200 178.400 94.400 L 178.400 81.600 177.500 81.640 C 177.005 81.661,175.790 81.939,174.800 82.257 M221.895 81.838 C 221.733 82.001,221.600 87.773,221.600 94.667 L 221.600 107.200 243.200 107.200 L 264.800 107.200 264.800 96.024 C 264.800 89.252,264.647 84.753,264.413 84.608 C 264.200 84.476,261.905 84.666,259.313 85.030 C 250.382 86.284,237.412 85.423,227.800 82.938 C 222.323 81.522,222.229 81.504,221.895 81.838 M21.381 90.582 C 47.053 107.420,57.557 111.203,98.600 118.394 C 143.799 126.313,148.054 128.159,152.855 141.936 C 154.488 146.623,158.632 155.055,161.331 159.184 C 163.890 163.098,163.942 162.719,160.590 164.561 C 159.156 165.349,156.735 166.816,155.211 167.821 L 152.438 169.647 149.202 168.624 C 144.184 167.039,140.547 166.937,133.000 168.169 C 109.197 172.054,103.506 172.543,89.084 171.939 C 67.266 171.024,51.240 165.632,40.200 155.490 C 37.113 152.654,37.449 152.433,42.904 153.717 C 66.650 159.308,98.532 158.643,118.369 152.142 C 122.918 150.652,122.286 150.618,108.200 151.607 C 63.777 154.724,34.040 145.485,20.951 124.499 C 18.340 120.312,18.578 120.109,23.600 122.241 C 47.887 132.549,77.346 138.297,96.537 136.471 C 102.688 135.886,102.840 135.325,97.091 134.428 C 45.482 126.381,21.809 112.870,13.823 86.900 C 13.374 85.440,14.022 85.755,21.381 90.582 M386.000 86.415 C 386.000 87.255,383.116 94.278,381.744 96.777 C 371.211 115.976,349.925 126.331,305.293 133.968 C 296.733 135.433,296.358 135.750,302.429 136.389 C 312.817 137.483,327.122 136.297,341.400 133.158 C 353.299 130.542,365.864 126.575,375.980 122.242 C 381.677 119.801,381.754 120.017,377.456 126.398 C 364.516 145.613,335.038 154.398,292.800 151.628 C 278.257 150.674,278.173 150.672,278.637 151.167 C 279.244 151.815,290.545 154.609,296.487 155.580 C 316.104 158.786,337.927 158.109,356.696 153.712 C 362.138 152.437,362.473 152.648,359.470 155.449 C 347.279 166.817,330.730 171.762,304.800 171.787 C 289.505 171.801,288.418 171.709,271.759 168.978 C 258.059 166.731,256.346 166.723,249.679 168.868 L 247.159 169.679 244.479 167.884 C 243.006 166.897,240.586 165.423,239.101 164.609 C 235.834 162.816,235.850 162.839,236.843 161.375 C 240.753 155.610,245.176 146.943,246.832 141.800 C 251.207 128.210,254.907 126.628,302.000 118.202 C 342.812 110.899,354.097 106.778,379.000 90.076 C 384.834 86.164,386.000 85.554,386.000 86.415 M201.614 125.214 C 205.619 129.219,210.833 141.532,217.672 163.132 L 218.600 166.064 222.400 167.379 C 227.684 169.209,232.400 171.604,232.400 172.457 C 232.400 172.833,231.430 174.818,230.244 176.870 L 228.088 180.600 199.882 180.703 L 171.677 180.805 169.218 176.598 C 167.865 174.284,166.883 172.189,167.036 171.942 C 167.450 171.272,174.213 168.202,177.916 167.003 L 181.157 165.954 181.796 163.677 C 186.316 147.573,193.541 130.041,197.388 125.841 C 198.910 124.179,200.363 123.963,201.614 125.214 M120.739 178.422 C 126.536 179.184,135.814 180.864,141.777 182.230 C 149.215 183.935,148.858 183.948,151.336 181.864 C 157.518 176.666,157.908 176.653,160.679 181.555 C 163.201 186.017,163.183 185.818,161.339 188.933 C 160.536 190.290,156.784 196.800,153.002 203.400 C 149.220 210.000,145.597 216.287,144.952 217.371 C 143.823 219.267,143.577 219.430,138.589 221.592 C 135.735 222.830,132.095 224.508,130.500 225.321 C 128.904 226.134,127.509 226.800,127.400 226.800 C 126.886 226.800,127.299 223.136,128.258 219.180 L 129.316 214.814 126.652 211.907 C 109.586 193.284,101.614 181.278,104.645 178.762 C 106.041 177.604,113.350 177.449,120.739 178.422 M244.634 179.250 C 245.935 180.158,247.741 181.580,248.647 182.410 L 250.295 183.919 252.647 183.349 C 274.066 178.153,292.316 176.280,295.035 178.998 C 297.705 181.668,288.781 194.957,273.500 211.067 C 269.876 214.888,269.716 215.200,270.425 217.065 C 270.822 218.110,271.570 221.461,272.173 224.900 C 272.508 226.808,272.040 226.840,268.689 225.132 C 267.320 224.434,263.860 222.846,261.000 221.603 L 255.800 219.342 253.250 214.971 C 244.193 199.448,236.800 186.319,236.800 185.759 C 236.800 184.803,241.190 177.600,241.773 177.600 C 242.045 177.600,243.332 178.343,244.634 179.250 M85.477 182.135 C 86.140 182.781,84.444 191.165,82.428 197.200 C 79.744 205.237,77.141 210.570,72.106 218.350 C 51.061 250.865,59.991 292.554,92.533 313.708 C 104.373 321.406,123.556 326.024,151.000 327.785 C 170.350 329.027,181.804 332.707,194.872 341.883 C 200.446 345.796,199.748 345.680,203.106 343.254 C 217.420 332.911,228.949 329.043,249.200 327.789 C 280.229 325.867,300.264 320.176,313.200 309.609 C 341.734 286.302,347.511 248.159,327.175 217.339 C 320.905 207.837,315.604 194.179,314.217 183.949 C 313.911 181.692,313.800 181.747,319.327 181.377 L 323.544 181.095 323.820 182.647 C 325.757 193.554,330.201 204.599,336.168 213.338 C 342.055 221.960,345.943 231.980,348.068 244.000 C 348.795 248.111,348.788 264.432,348.058 268.200 C 342.892 294.859,327.766 315.235,305.000 326.201 C 296.653 330.221,280.790 334.241,266.400 335.982 C 258.972 336.881,250.848 337.599,248.000 337.607 C 232.213 337.653,216.456 344.036,203.207 355.753 C 199.583 358.959,200.294 358.984,196.415 355.515 C 183.504 343.971,170.206 338.603,152.000 337.588 C 108.134 335.142,84.519 325.738,67.495 303.936 C 46.953 277.629,45.572 239.778,64.166 212.681 C 69.649 204.691,76.400 187.357,76.400 181.271 C 76.400 180.887,85.041 181.709,85.477 182.135 M234.633 202.400 C 242.465 216.010,242.247 215.272,238.120 214.195 C 217.700 208.868,181.196 208.867,161.600 214.193 C 157.173 215.396,156.909 216.291,165.203 202.000 C 166.671 199.470,168.729 195.914,169.776 194.097 L 171.679 190.795 199.875 190.897 L 228.072 191.000 234.633 202.400 M97.917 196.700 C 100.376 201.973,99.205 208.865,95.058 213.534 C 93.437 215.360,93.200 215.854,93.200 217.413 C 93.200 219.410,93.604 219.664,94.531 218.249 C 96.575 215.130,101.387 211.844,104.697 211.307 L 106.107 211.078 105.927 214.501 C 105.605 220.629,102.324 225.369,96.351 228.335 L 93.400 229.800 93.412 233.000 C 93.426 236.785,93.925 240.800,94.382 240.800 C 94.560 240.800,95.176 239.840,95.750 238.666 C 97.682 234.718,104.657 229.196,107.100 229.680 C 108.392 229.936,108.052 237.603,106.626 240.378 C 104.958 243.626,101.482 247.064,98.500 248.416 C 95.530 249.763,95.521 249.805,97.012 255.408 C 98.597 261.363,99.569 262.848,99.594 259.354 C 99.624 255.240,108.004 246.351,111.957 246.240 C 113.392 246.200,113.399 246.208,113.758 248.321 C 115.038 255.835,111.381 263.348,104.400 267.549 C 101.186 269.483,101.184 269.544,104.143 275.769 C 106.713 281.176,106.973 281.317,107.593 277.639 C 108.547 271.988,112.977 265.960,118.449 262.870 C 122.575 260.540,123.200 261.296,123.200 268.618 C 123.200 276.946,120.449 282.120,113.500 286.861 C 110.643 288.810,110.535 288.174,114.805 294.564 C 119.132 301.039,119.081 301.000,119.374 298.105 C 120.174 290.205,121.744 286.608,126.443 281.909 C 130.258 278.094,131.059 277.930,132.347 280.700 C 136.372 289.354,134.670 299.629,128.100 306.342 C 125.019 309.491,124.990 309.061,128.598 313.834 C 131.733 317.980,131.903 318.337,131.120 319.120 C 130.103 320.137,129.227 319.505,126.376 315.700 C 122.750 310.859,117.774 304.574,116.781 303.581 C 116.054 302.854,115.969 302.858,113.295 303.768 C 102.401 307.473,93.425 304.840,86.323 295.854 C 84.451 293.487,84.675 293.049,88.475 291.661 C 94.770 289.361,100.973 289.685,106.916 292.623 C 110.914 294.601,110.912 294.617,107.429 288.398 C 103.501 281.387,103.925 281.736,100.378 282.605 C 92.698 284.488,86.083 282.549,80.266 276.712 C 75.190 271.617,74.874 270.070,78.681 268.952 C 84.511 267.240,91.605 268.295,96.436 271.592 C 99.764 273.864,99.762 273.874,97.411 266.900 L 95.288 260.600 90.744 260.348 C 83.893 259.968,81.865 259.084,77.759 254.687 C 74.286 250.968,72.309 247.348,73.340 246.594 C 76.597 244.213,86.884 246.573,91.296 250.713 C 92.931 252.247,92.968 251.809,91.777 245.131 C 90.536 238.181,90.526 238.159,88.367 237.794 C 81.642 236.658,73.465 226.298,75.372 221.329 C 76.049 219.563,83.723 222.363,87.459 225.739 C 88.591 226.763,89.598 227.600,89.696 227.600 C 90.288 227.600,90.336 213.531,89.751 211.560 C 88.192 206.309,89.684 200.385,93.588 196.335 C 96.029 193.802,96.587 193.849,97.917 196.700 M306.545 196.423 C 310.397 200.707,311.779 206.364,310.270 211.662 C 309.635 213.887,309.755 227.600,310.408 227.600 C 310.568 227.600,311.760 226.653,313.057 225.496 C 316.902 222.065,323.947 219.554,324.643 221.367 C 326.563 226.372,318.317 236.722,311.508 237.852 C 309.443 238.195,309.421 238.245,308.228 245.150 C 307.028 252.097,307.040 252.175,309.004 250.450 C 313.520 246.485,323.576 244.308,326.685 246.622 C 327.736 247.404,325.868 250.804,322.274 254.652 C 318.124 259.096,314.937 260.400,308.229 260.400 L 304.898 260.400 304.080 262.700 C 303.631 263.965,302.724 266.530,302.066 268.400 C 301.408 270.270,300.745 272.115,300.592 272.500 C 300.187 273.520,301.088 273.380,302.664 272.178 C 306.804 269.021,312.398 267.679,318.344 268.418 C 325.138 269.262,325.548 270.769,320.444 276.136 C 314.085 282.823,307.742 284.492,297.532 282.163 C 296.314 281.885,296.246 281.973,292.053 289.356 C 289.088 294.576,289.084 294.568,293.500 292.470 C 299.678 289.535,305.228 289.345,311.948 291.836 C 315.294 293.076,315.583 293.601,314.013 295.584 C 306.745 304.761,298.155 307.380,286.975 303.830 C 284.108 302.919,283.897 302.903,283.252 303.548 C 282.350 304.450,279.019 308.660,274.430 314.700 C 270.800 319.477,269.930 320.170,268.880 319.120 C 268.092 318.332,268.270 317.957,271.400 313.813 C 275.003 309.042,274.975 309.390,272.000 306.368 C 265.751 300.021,263.822 290.481,267.074 282.000 C 268.617 277.976,269.336 277.857,272.792 281.057 C 277.696 285.597,279.689 289.550,280.440 296.227 L 280.925 300.538 281.875 299.369 C 282.949 298.047,287.606 291.085,288.361 289.674 C 288.950 288.572,288.529 287.894,286.652 286.924 C 279.342 283.143,274.824 271.731,277.221 263.100 C 278.746 257.607,291.070 269.228,292.403 277.416 C 293.070 281.516,293.338 281.364,296.150 275.289 C 298.768 269.632,298.758 269.398,295.802 267.633 C 288.834 263.470,285.369 256.728,286.143 248.837 C 286.460 245.606,287.041 245.233,289.719 246.543 C 294.392 248.829,299.026 254.158,300.174 258.565 C 301.122 262.203,301.205 262.109,302.988 255.408 C 304.476 249.814,304.486 249.855,301.300 248.250 C 298.005 246.590,294.778 243.309,293.287 240.101 C 291.907 237.132,291.648 229.926,292.913 229.677 C 295.504 229.166,302.442 234.649,304.277 238.657 C 305.882 242.162,306.537 240.668,306.579 233.407 L 306.600 229.814 303.527 228.293 C 297.709 225.413,294.393 220.556,294.071 214.440 L 293.893 211.081 295.624 211.357 C 298.272 211.781,300.988 213.478,303.817 216.476 C 306.858 219.700,306.800 219.682,306.800 217.433 C 306.800 215.906,306.549 215.375,304.952 213.533 C 300.462 208.353,299.540 201.799,302.471 195.900 C 303.480 193.870,304.349 193.981,306.545 196.423 M220.400 219.153 C 241.064 222.037,257.363 227.017,274.533 235.693 C 283.054 239.999,283.208 240.583,278.130 249.298 C 273.137 257.865,273.270 257.826,264.272 253.442 C 222.798 233.235,175.519 233.306,134.645 253.637 C 126.422 257.727,126.325 257.699,121.888 249.920 C 116.384 240.273,116.485 239.771,124.765 235.619 C 141.582 227.185,161.147 221.265,179.000 219.208 C 181.200 218.955,184.350 218.591,186.000 218.400 C 191.559 217.756,213.893 218.244,220.400 219.153 M211.644 248.208 C 225.940 249.619,238.837 252.870,251.930 258.362 C 259.439 261.513,259.249 261.251,256.880 265.168 C 251.738 273.672,238.583 282.282,225.309 285.832 L 221.219 286.926 219.359 289.294 C 209.762 301.509,190.371 301.663,180.519 289.604 L 178.341 286.937 174.346 285.824 C 160.099 281.855,146.691 272.841,142.097 264.144 C 140.256 260.657,140.277 260.605,144.300 258.749 C 156.193 253.263,173.225 249.152,189.400 247.862 C 194.123 247.485,206.234 247.674,211.644 248.208 M194.228 256.836 C 175.721 263.265,180.096 290.713,199.640 290.787 C 218.503 290.859,224.038 265.530,206.915 257.499 C 203.326 255.815,197.972 255.536,194.228 256.836 M164.436 295.349 C 166.755 299.747,166.341 299.424,170.765 300.291 C 175.957 301.308,176.022 301.517,172.420 305.605 L 169.507 308.911 169.772 310.756 C 170.942 318.877,170.830 319.033,165.674 316.487 L 161.981 314.664 158.106 316.533 C 153.368 318.818,153.044 318.693,153.608 314.800 C 154.418 309.203,154.306 308.737,151.400 305.570 C 149.970 304.012,148.800 302.395,148.800 301.976 C 148.800 301.164,148.791 301.167,153.600 300.185 C 157.076 299.475,157.382 299.213,159.436 295.200 C 161.800 290.580,161.925 290.584,164.436 295.349 M239.096 292.700 C 239.508 293.305,240.421 294.993,241.125 296.452 C 242.564 299.439,242.993 299.711,247.400 300.437 C 252.092 301.210,252.190 301.658,248.544 305.631 L 245.888 308.526 246.128 312.190 C 246.261 314.205,246.470 316.117,246.593 316.438 C 247.378 318.484,245.862 318.525,241.915 316.564 L 238.073 314.656 234.200 316.529 C 229.468 318.816,229.403 318.788,229.823 314.644 C 230.430 308.639,230.479 308.826,227.409 305.396 C 224.001 301.587,224.089 301.301,228.975 300.340 C 233.096 299.528,233.623 299.129,235.490 295.400 C 237.639 291.110,237.885 290.925,239.096 292.700 M202.800 306.763 C 205.338 311.505,205.221 311.416,210.163 312.373 C 215.909 313.486,215.950 313.610,212.005 317.935 C 208.488 321.789,208.417 322.020,209.098 327.359 C 209.861 333.340,209.719 333.468,204.954 331.084 C 199.695 328.453,200.128 328.467,195.622 330.769 C 190.731 333.268,190.194 333.191,190.564 330.038 C 190.708 328.807,190.934 326.429,191.067 324.753 L 191.307 321.705 188.254 318.273 C 184.100 313.605,184.172 313.292,189.600 312.402 C 194.560 311.588,194.847 311.383,196.985 307.141 C 199.993 301.174,199.815 301.186,202.800 306.763 " stroke="none" fill="#fbf5f7" fill-rule="evenodd"></path><path id="path1" d="M0.000 200.000 L 0.000 400.000 200.000 400.000 L 400.000 400.000 400.000 200.000 L 400.000 0.000 200.000 0.000 L 0.000 0.000 0.000 200.000 M106.330 42.785 C 133.558 68.004,168.886 67.792,196.263 42.245 C 200.257 38.517,199.687 38.485,204.238 42.687 C 231.968 68.287,266.746 67.882,294.800 41.633 C 298.082 38.562,297.229 38.295,304.427 44.648 C 307.822 47.644,312.568 51.829,314.974 53.948 C 317.380 56.067,321.169 59.420,323.395 61.400 C 325.620 63.380,329.495 66.800,332.005 69.000 C 334.516 71.200,339.006 75.165,341.985 77.811 C 354.651 89.065,357.619 91.600,358.128 91.600 C 358.862 91.600,365.862 87.323,374.934 81.331 C 385.691 74.226,388.991 73.730,393.642 78.518 C 398.313 83.328,395.672 94.470,386.985 106.600 C 383.915 110.888,383.978 110.477,386.186 111.771 C 389.165 113.516,391.212 117.027,391.191 120.350 C 391.158 125.310,382.368 137.693,374.439 143.947 C 370.687 146.908,370.386 147.427,371.400 149.200 C 375.648 156.632,361.980 169.529,342.600 176.375 L 338.200 177.930 338.259 179.695 C 338.472 186.108,342.837 197.101,348.650 205.869 C 382.887 257.503,355.237 329.313,295.000 345.207 C 283.291 348.297,268.191 350.763,255.982 351.580 C 238.790 352.730,234.660 353.513,227.255 357.029 C 217.254 361.778,210.679 367.534,203.474 377.849 C 199.845 383.045,200.236 383.054,196.340 377.674 C 183.540 359.994,171.071 353.116,149.800 352.002 C 123.273 350.612,99.573 345.293,85.340 337.536 C 37.310 311.360,21.709 249.953,51.722 205.217 C 56.353 198.316,59.550 190.795,61.215 182.889 C 62.211 178.159,62.146 177.967,59.292 177.174 C 49.629 174.489,37.703 167.427,31.102 160.482 C 27.107 156.278,26.642 153.912,28.600 147.738 C 28.833 147.005,28.333 146.450,25.263 144.028 C 19.385 139.391,13.225 131.919,9.911 125.405 C 6.942 119.568,8.600 114.487,14.624 110.968 C 15.308 110.569,15.213 110.328,13.369 107.768 C 0.783 90.294,0.288 76.431,12.224 75.671 C 15.699 75.450,16.065 75.619,25.281 81.720 C 35.229 88.306,40.686 91.600,41.650 91.600 C 42.051 91.600,44.150 90.025,46.315 88.100 C 48.480 86.175,54.647 80.730,60.020 76.000 C 65.393 71.270,71.412 65.952,73.395 64.181 C 87.404 51.673,101.714 39.200,102.054 39.200 C 102.277 39.200,104.201 40.813,106.330 42.785 M100.160 59.906 C 99.479 60.508,93.731 65.590,87.387 71.200 C 81.043 76.810,72.511 84.349,68.426 87.954 C 54.932 99.863,55.656 98.672,60.900 100.337 C 67.467 102.423,66.464 102.659,72.075 97.710 C 74.784 95.321,78.710 91.862,80.800 90.023 C 82.890 88.183,85.996 85.446,87.703 83.939 C 92.304 79.877,91.972 79.109,92.094 94.100 L 92.200 107.000 113.687 107.103 L 135.173 107.207 135.287 111.475 L 135.400 115.743 140.200 117.387 C 152.569 121.622,157.605 126.709,162.194 139.600 C 164.400 145.795,171.115 157.787,172.660 158.290 C 172.943 158.382,174.135 155.397,175.760 150.520 L 178.400 142.600 178.400 124.900 L 178.400 107.200 200.000 107.200 L 221.600 107.200 221.600 125.592 L 221.600 143.985 223.375 149.292 C 226.088 157.403,226.467 158.400,226.837 158.400 C 228.116 158.400,235.925 144.148,238.014 138.000 C 241.964 126.381,248.617 120.353,261.600 116.631 L 264.600 115.771 264.713 111.489 L 264.827 107.207 286.313 107.103 L 307.800 107.000 308.000 94.233 C 308.142 85.150,308.332 81.422,308.658 81.314 C 308.911 81.230,312.847 84.455,317.406 88.481 C 333.229 102.453,332.711 102.037,333.917 101.738 C 337.707 100.797,342.609 98.929,342.680 98.400 C 342.724 98.070,341.811 96.990,340.650 96.000 C 339.490 95.010,331.725 88.170,323.396 80.800 C 300.338 60.397,298.498 58.800,298.044 58.800 C 297.813 58.800,295.377 60.324,292.632 62.186 C 265.731 80.436,233.330 80.587,205.959 62.590 C 199.971 58.653,199.867 58.653,194.030 62.597 C 166.896 80.935,132.904 80.365,105.728 61.118 C 101.979 58.463,101.833 58.431,100.160 59.906 M178.400 94.400 L 178.400 107.200 156.800 107.200 L 135.200 107.200 135.200 96.024 C 135.200 83.507,134.994 84.211,138.481 84.807 C 148.271 86.482,165.391 85.280,174.800 82.257 C 175.790 81.939,177.005 81.661,177.500 81.640 L 178.400 81.600 178.400 94.400 M227.800 82.938 C 237.412 85.423,250.382 86.284,259.313 85.030 C 261.905 84.666,264.200 84.476,264.413 84.608 C 264.647 84.753,264.800 89.252,264.800 96.024 L 264.800 107.200 243.200 107.200 L 221.600 107.200 221.600 94.667 C 221.600 87.773,221.733 82.001,221.895 81.838 C 222.229 81.504,222.323 81.522,227.800 82.938 M13.823 86.900 C 21.809 112.870,45.482 126.381,97.091 134.428 C 102.840 135.325,102.688 135.886,96.537 136.471 C 77.346 138.297,47.887 132.549,23.600 122.241 C 18.578 120.109,18.340 120.312,20.951 124.499 C 34.040 145.485,63.777 154.724,108.200 151.607 C 122.286 150.618,122.918 150.652,118.369 152.142 C 98.532 158.643,66.650 159.308,42.904 153.717 C 37.449 152.433,37.113 152.654,40.200 155.490 C 51.240 165.632,67.266 171.024,89.084 171.939 C 103.506 172.543,109.197 172.054,133.000 168.169 C 140.547 166.937,144.184 167.039,149.202 168.624 L 152.438 169.647 155.211 167.821 C 156.735 166.816,159.156 165.349,160.590 164.561 C 163.942 162.719,163.890 163.098,161.331 159.184 C 158.632 155.055,154.488 146.623,152.855 141.936 C 148.054 128.159,143.799 126.313,98.600 118.394 C 57.557 111.203,47.053 107.420,21.381 90.582 C 14.022 85.755,13.374 85.440,13.823 86.900 M379.000 90.076 C 363.016 100.796,351.525 106.509,338.000 110.462 C 328.867 113.130,321.543 114.705,302.000 118.202 C 254.907 126.628,251.207 128.210,246.832 141.800 C 245.176 146.943,240.753 155.610,236.843 161.375 C 235.850 162.839,235.834 162.816,239.101 164.609 C 240.586 165.423,243.006 166.897,244.479 167.884 L 247.159 169.679 249.679 168.868 C 256.346 166.723,258.059 166.731,271.759 168.978 C 288.418 171.709,289.505 171.801,304.800 171.787 C 330.730 171.762,347.279 166.817,359.470 155.449 C 362.473 152.648,362.138 152.437,356.696 153.712 C 337.927 158.109,316.104 158.786,296.487 155.580 C 290.545 154.609,279.244 151.815,278.637 151.167 C 278.173 150.672,278.257 150.674,292.800 151.628 C 335.038 154.398,364.516 145.613,377.456 126.398 C 381.754 120.017,381.677 119.801,375.980 122.242 C 351.736 132.627,321.653 138.414,302.429 136.389 C 296.358 135.750,296.733 135.433,305.293 133.968 C 354.150 125.608,375.576 113.865,384.579 90.515 C 386.797 84.763,386.910 84.771,379.000 90.076 M197.388 125.841 C 193.541 130.041,186.316 147.573,181.796 163.677 L 181.157 165.954 177.916 167.003 C 174.213 168.202,167.450 171.272,167.036 171.942 C 166.883 172.189,167.865 174.284,169.218 176.598 L 171.677 180.805 199.882 180.703 L 228.088 180.600 230.244 176.870 C 231.430 174.818,232.400 172.833,232.400 172.457 C 232.400 171.604,227.684 169.209,222.400 167.379 L 218.600 166.064 217.672 163.132 C 211.743 144.406,207.756 134.370,203.760 128.114 C 201.073 123.906,199.631 123.392,197.388 125.841 M107.145 177.940 C 100.099 179.030,106.102 189.482,126.652 211.907 L 129.316 214.814 128.258 219.180 C 127.299 223.136,126.886 226.800,127.400 226.800 C 127.509 226.800,128.904 226.134,130.500 225.321 C 132.095 224.508,135.735 222.830,138.589 221.592 C 143.577 219.430,143.823 219.267,144.952 217.371 C 145.597 216.287,149.220 210.000,153.002 203.400 C 156.784 196.800,160.536 190.290,161.339 188.933 C 163.183 185.818,163.201 186.017,160.679 181.555 C 157.908 176.653,157.518 176.666,151.336 181.864 C 148.858 183.948,149.215 183.935,141.777 182.230 C 127.417 178.940,112.570 177.100,107.145 177.940 M239.039 181.352 C 237.808 183.416,236.800 185.399,236.800 185.759 C 236.800 186.319,244.193 199.448,253.250 214.971 L 255.800 219.342 261.000 221.603 C 263.860 222.846,267.320 224.434,268.689 225.132 C 272.040 226.840,272.508 226.808,272.173 224.900 C 271.570 221.461,270.822 218.110,270.425 217.065 C 269.716 215.200,269.876 214.888,273.500 211.067 C 288.781 194.957,297.705 181.668,295.035 178.998 C 292.316 176.280,274.066 178.153,252.647 183.349 L 250.295 183.919 248.647 182.410 C 246.555 180.492,242.420 177.600,241.773 177.600 C 241.500 177.600,240.270 179.288,239.039 181.352 M76.400 181.271 C 76.400 187.357,69.649 204.691,64.166 212.681 C 47.239 237.349,46.721 271.315,62.875 297.359 C 79.055 323.447,104.518 334.940,152.000 337.588 C 170.206 338.603,183.504 343.971,196.415 355.515 C 200.294 358.984,199.583 358.959,203.207 355.753 C 216.456 344.036,232.213 337.653,248.000 337.607 C 249.650 337.602,253.700 337.327,257.000 336.996 C 292.398 333.444,310.562 326.729,325.493 311.677 C 337.906 299.164,344.532 286.396,348.058 268.200 C 348.788 264.432,348.795 248.111,348.068 244.000 C 345.943 231.980,342.055 221.960,336.168 213.338 C 330.201 204.599,325.757 193.554,323.820 182.647 L 323.544 181.095 319.327 181.377 C 313.800 181.747,313.911 181.692,314.217 183.949 C 315.604 194.179,320.905 207.837,327.175 217.339 C 347.511 248.159,341.734 286.302,313.200 309.609 C 300.264 320.176,280.229 325.867,249.200 327.789 C 228.949 329.043,217.420 332.911,203.106 343.254 C 199.748 345.680,200.446 345.796,194.872 341.883 C 181.804 332.707,170.350 329.027,151.000 327.785 C 123.556 326.024,104.373 321.406,92.533 313.708 C 59.991 292.554,51.061 250.865,72.106 218.350 C 77.141 210.570,79.744 205.237,82.428 197.200 C 84.444 191.165,86.140 182.781,85.477 182.135 C 85.041 181.709,76.400 180.887,76.400 181.271 M169.776 194.097 C 168.729 195.914,166.671 199.470,165.203 202.000 C 156.909 216.291,157.173 215.396,161.600 214.193 C 181.196 208.867,217.700 208.868,238.120 214.195 C 242.247 215.272,242.465 216.010,234.633 202.400 L 228.072 191.000 199.875 190.897 L 171.679 190.795 169.776 194.097 M93.588 196.335 C 89.684 200.385,88.192 206.309,89.751 211.560 C 90.336 213.531,90.288 227.600,89.696 227.600 C 89.598 227.600,88.591 226.763,87.459 225.739 C 83.723 222.363,76.049 219.563,75.372 221.329 C 73.465 226.298,81.642 236.658,88.367 237.794 C 90.526 238.159,90.536 238.181,91.777 245.131 C 92.968 251.809,92.931 252.247,91.296 250.713 C 86.884 246.573,76.597 244.213,73.340 246.594 C 72.309 247.348,74.286 250.968,77.759 254.687 C 81.865 259.084,83.893 259.968,90.744 260.348 L 95.288 260.600 97.411 266.900 C 99.762 273.874,99.764 273.864,96.436 271.592 C 91.605 268.295,84.511 267.240,78.681 268.952 C 74.874 270.070,75.190 271.617,80.266 276.712 C 86.083 282.549,92.698 284.488,100.378 282.605 C 103.925 281.736,103.501 281.387,107.429 288.398 C 110.912 294.617,110.914 294.601,106.916 292.623 C 100.973 289.685,94.770 289.361,88.475 291.661 C 84.675 293.049,84.451 293.487,86.323 295.854 C 93.425 304.840,102.401 307.473,113.295 303.768 C 115.969 302.858,116.054 302.854,116.781 303.581 C 117.774 304.574,122.750 310.859,126.376 315.700 C 129.227 319.505,130.103 320.137,131.120 319.120 C 131.903 318.337,131.733 317.980,128.598 313.834 C 124.990 309.061,125.019 309.491,128.100 306.342 C 134.670 299.629,136.372 289.354,132.347 280.700 C 131.059 277.930,130.258 278.094,126.443 281.909 C 121.744 286.608,120.174 290.205,119.374 298.105 C 119.081 301.000,119.132 301.039,114.805 294.564 C 110.535 288.174,110.643 288.810,113.500 286.861 C 120.449 282.120,123.200 276.946,123.200 268.618 C 123.200 261.296,122.575 260.540,118.449 262.870 C 112.977 265.960,108.547 271.988,107.593 277.639 C 106.973 281.317,106.713 281.176,104.143 275.769 C 101.184 269.544,101.186 269.483,104.400 267.549 C 111.381 263.348,115.038 255.835,113.758 248.321 C 113.399 246.208,113.392 246.200,111.957 246.240 C 108.004 246.351,99.624 255.240,99.594 259.354 C 99.569 262.848,98.597 261.363,97.012 255.408 C 95.521 249.805,95.530 249.763,98.500 248.416 C 101.482 247.064,104.958 243.626,106.626 240.378 C 108.052 237.603,108.392 229.936,107.100 229.680 C 104.657 229.196,97.682 234.718,95.750 238.666 C 95.176 239.840,94.560 240.800,94.382 240.800 C 93.925 240.800,93.426 236.785,93.412 233.000 L 93.400 229.800 96.351 228.335 C 102.324 225.369,105.605 220.629,105.927 214.501 L 106.107 211.078 104.697 211.307 C 101.387 211.844,96.575 215.130,94.531 218.249 C 93.604 219.664,93.200 219.410,93.200 217.413 C 93.200 215.854,93.437 215.360,95.058 213.534 C 99.205 208.865,100.376 201.973,97.917 196.700 C 96.587 193.849,96.029 193.802,93.588 196.335 M302.471 195.900 C 299.540 201.799,300.462 208.353,304.952 213.533 C 306.549 215.375,306.800 215.906,306.800 217.433 C 306.800 219.682,306.858 219.700,303.817 216.476 C 300.988 213.478,298.272 211.781,295.624 211.357 L 293.893 211.081 294.071 214.440 C 294.393 220.556,297.709 225.413,303.527 228.293 L 306.600 229.814 306.579 233.407 C 306.537 240.668,305.882 242.162,304.277 238.657 C 302.442 234.649,295.504 229.166,292.913 229.677 C 291.648 229.926,291.907 237.132,293.287 240.101 C 294.778 243.309,298.005 246.590,301.300 248.250 C 304.486 249.855,304.476 249.814,302.988 255.408 C 301.205 262.109,301.122 262.203,300.174 258.565 C 299.026 254.158,294.392 248.829,289.719 246.543 C 287.041 245.233,286.460 245.606,286.143 248.837 C 285.369 256.728,288.834 263.470,295.802 267.633 C 298.758 269.398,298.768 269.632,296.150 275.289 C 293.338 281.364,293.070 281.516,292.403 277.416 C 291.070 269.228,278.746 257.607,277.221 263.100 C 274.824 271.731,279.342 283.143,286.652 286.924 C 288.529 287.894,288.950 288.572,288.361 289.674 C 287.606 291.085,282.949 298.047,281.875 299.369 L 280.925 300.538 280.440 296.227 C 279.689 289.550,277.696 285.597,272.792 281.057 C 269.336 277.857,268.617 277.976,267.074 282.000 C 263.822 290.481,265.751 300.021,272.000 306.368 C 274.975 309.390,275.003 309.042,271.400 313.813 C 268.270 317.957,268.092 318.332,268.880 319.120 C 269.930 320.170,270.800 319.477,274.430 314.700 C 279.019 308.660,282.350 304.450,283.252 303.548 C 283.897 302.903,284.108 302.919,286.975 303.830 C 298.155 307.380,306.745 304.761,314.013 295.584 C 315.583 293.601,315.294 293.076,311.948 291.836 C 305.228 289.345,299.678 289.535,293.500 292.470 C 289.084 294.568,289.088 294.576,292.053 289.356 C 296.246 281.973,296.314 281.885,297.532 282.163 C 308.874 284.750,318.965 280.975,323.344 272.508 C 326.291 266.810,310.043 266.550,302.664 272.178 C 301.088 273.380,300.187 273.520,300.592 272.500 C 300.745 272.115,301.408 270.270,302.066 268.400 C 302.724 266.530,303.631 263.965,304.080 262.700 L 304.898 260.400 308.229 260.400 C 316.390 260.400,322.472 256.686,326.237 249.404 C 329.128 243.811,315.632 244.630,309.004 250.450 C 307.040 252.175,307.028 252.097,308.228 245.150 C 309.421 238.245,309.443 238.195,311.508 237.852 C 318.317 236.722,326.563 226.372,324.643 221.367 C 323.947 219.554,316.902 222.065,313.057 225.496 C 311.760 226.653,310.568 227.600,310.408 227.600 C 309.755 227.600,309.635 213.887,310.270 211.662 C 311.779 206.364,310.397 200.707,306.545 196.423 C 304.349 193.981,303.480 193.870,302.471 195.900 M186.000 218.400 C 184.350 218.591,181.200 218.955,179.000 219.208 C 161.147 221.265,141.582 227.185,124.765 235.619 C 116.485 239.771,116.384 240.273,121.888 249.920 C 126.325 257.699,126.422 257.727,134.645 253.637 C 175.519 233.306,222.798 233.235,264.272 253.442 C 273.270 257.826,273.137 257.865,278.130 249.298 C 283.208 240.583,283.054 239.999,274.533 235.693 C 257.363 227.017,241.064 222.037,220.400 219.153 C 213.893 218.244,191.559 217.756,186.000 218.400 M189.400 247.862 C 173.225 249.152,156.193 253.263,144.300 258.749 C 140.277 260.605,140.256 260.657,142.097 264.144 C 146.691 272.841,160.099 281.855,174.346 285.824 L 178.341 286.937 180.519 289.604 C 190.371 301.663,209.762 301.509,219.359 289.294 L 221.219 286.926 225.309 285.832 C 238.583 282.282,251.738 273.672,256.880 265.168 C 259.249 261.251,259.439 261.513,251.930 258.362 C 232.406 250.172,209.233 246.281,189.400 247.862 M206.915 257.499 C 224.038 265.530,218.503 290.859,199.640 290.787 C 182.394 290.721,175.894 268.643,190.219 258.787 C 194.768 255.657,201.828 255.112,206.915 257.499 M161.385 291.907 C 161.157 292.068,160.280 293.550,159.436 295.200 C 157.382 299.213,157.076 299.475,153.600 300.185 C 148.791 301.167,148.800 301.164,148.800 301.976 C 148.800 302.395,149.970 304.012,151.400 305.570 C 154.306 308.737,154.418 309.203,153.608 314.800 C 153.044 318.693,153.368 318.818,158.106 316.533 L 161.981 314.664 165.674 316.487 C 170.830 319.033,170.942 318.877,169.772 310.756 L 169.507 308.911 172.420 305.605 C 176.022 301.517,175.957 301.308,170.765 300.291 C 166.341 299.424,166.755 299.747,164.436 295.349 C 162.595 291.856,162.156 291.361,161.385 291.907 M237.295 292.100 C 237.074 292.375,236.262 293.860,235.490 295.400 C 233.623 299.129,233.096 299.528,228.975 300.340 C 224.089 301.301,224.001 301.587,227.409 305.396 C 230.479 308.826,230.430 308.639,229.823 314.644 C 229.403 318.788,229.468 318.816,234.200 316.529 L 238.073 314.656 241.915 316.564 C 245.862 318.525,247.378 318.484,246.593 316.438 C 246.470 316.117,246.261 314.205,246.128 312.190 L 245.888 308.526 248.544 305.631 C 252.190 301.658,252.092 301.210,247.400 300.437 C 242.993 299.711,242.564 299.439,241.125 296.452 C 238.956 291.953,238.151 291.038,237.295 292.100 M199.296 302.887 C 199.062 303.169,198.023 305.084,196.985 307.141 C 194.847 311.383,194.560 311.588,189.600 312.402 C 184.172 313.292,184.100 313.605,188.254 318.273 L 191.307 321.705 191.067 324.753 C 190.934 326.429,190.708 328.807,190.564 330.038 C 190.194 333.191,190.731 333.268,195.622 330.769 C 200.128 328.467,199.695 328.453,204.954 331.084 C 209.719 333.468,209.861 333.340,209.098 327.359 C 208.417 322.020,208.488 321.789,212.005 317.935 C 215.950 313.610,215.909 313.486,210.163 312.373 C 205.221 311.416,205.338 311.505,202.800 306.763 C 200.548 302.555,200.037 301.990,199.296 302.887 " stroke="none" fill="#ba0b3c" fill-rule="evenodd"></path></g></svg>