<svg width="1913" height="1678" xmlns="http://www.w3.org/2000/svg" xmlns:xlink="http://www.w3.org/1999/xlink" xml:space="preserve" overflow="hidden"><g transform="translate(-1243 -398)"><path d="M2199.99 398.989 2199.99 399.001 2181.36 418.654C2125.43 477.655 2053.33 513.28 1956.16 513.279 1862.86 513.28 1800.83 475.026 1743.8 421.467L1723.03 401.948 1433.83 659.885C1413.03 648.441 1391.82 635.788 1367.94 619.867L1321.42 588.826C1314.53 584.236 1306.62 581.435 1298.38 580.677 1262.61 577.377 1235.24 611.931 1246.6 646.042L1251.67 661.243C1263.35 696.309 1280.12 726.796 1301.79 753.559 1293.82 756.283 1286.15 761.438 1279.53 770.257 1279.5 770.294 1279.47 770.331 1279.45 770.369 1251.62 807.642 1298.98 863.421 1309.65 876.703 1325.29 896.162 1346.25 914.906 1369.44 931.123 1337.23 981.378 1415.72 1030.14 1436.28 1042.83 1463.45 1059.6 1494.96 1072.75 1529.73 1082.42 1523.05 1189.24 1402.62 1263.17 1402.62 1473.24 1402.62 1595.03 1479.14 1841.08 1750.42 1898.52 1911.77 1932.68 2077.57 1914.14 2185.95 2057.96L2199.99 2075.98 2199.99 2075.99 2199.99 2075.98 2200 2075.99 2200 2075.98 2214.04 2057.96C2322.42 1914.14 2488.22 1932.68 2649.57 1898.52 2920.85 1841.08 2997.37 1595.03 2997.37 1473.24 2997.37 1263.17 2876.93 1189.24 2870.26 1082.42 2905.03 1072.75 2936.53 1059.6 2963.7 1042.83 2984.27 1030.14 3062.76 981.378 3030.55 931.123 3053.74 914.906 3074.7 896.162 3090.34 876.703 3101.01 863.421 3148.37 807.642 3120.54 770.369 3120.51 770.331 3120.49 770.294 3120.46 770.257 3113.83 761.438 3106.17 756.283 3098.19 753.559 3119.87 726.796 3136.63 696.309 3148.32 661.243L3153.39 646.042C3164.75 611.931 3137.37 577.377 3101.61 580.677 3093.38 581.435 3085.46 584.236 3078.57 588.826L3032.04 619.867C3008.17 635.788 2986.96 648.441 2966.16 659.885L2676.96 401.948 2656.18 421.467C2599.16 475.026 2537.12 513.28 2443.82 513.279 2346.65 513.28 2274.56 477.655 2218.63 418.654L2200 399.001 2200 398.989 2200 398.989 2199.99 398.993 2199.99 398.989 2199.99 398.989ZM1722.62 496.115C1730.21 502.435 1738.02 508.548 1746.05 514.42 1749.33 516.819 1752.82 518.994 1756.18 521.305 1761.6 525.036 1767.03 528.757 1772.68 532.238 1776.49 534.582 1780.48 536.72 1784.4 538.939 1789.95 542.084 1795.55 545.164 1801.34 548.036 1805.46 550.077 1809.7 551.965 1813.94 553.857 1819.96 556.543 1826.11 559.07 1832.4 561.435 1836.73 563.06 1841.1 564.622 1845.57 566.084 1852.35 568.308 1859.37 570.247 1866.48 572.069 1871.66 573.397 1876.76 574.831 1882.14 575.931 1884.12 576.338 1886.11 576.736 1888.12 577.11 1897.57 578.868 1907.27 580.299 1917.31 581.312 1919.22 581.504 1921.19 581.621 1923.12 581.786 1933.51 582.668 1944.15 583.248 1955.22 583.274 1955.54 583.275 1955.84 583.319 1956.16 583.319 1970.05 583.319 1983.42 582.601 1996.48 581.435 2000.67 581.063 2004.66 580.401 2008.77 579.912 2017.3 578.892 2025.75 577.765 2033.93 576.248 2039.07 575.301 2044.07 574.133 2049.07 572.995 2055.77 571.463 2062.4 569.818 2068.86 567.949 2074.36 566.371 2079.78 564.68 2085.11 562.864 2090.58 560.994 2095.93 558.949 2101.23 556.834 2106.98 554.548 2112.73 552.253 2118.29 549.685 2122.45 547.759 2126.45 545.601 2130.5 543.521 2154.9 531.046 2177.57 515.935 2198.59 498.167 2199.04 497.78 2199.54 497.452 2199.99 497.062 2200.45 497.452 2200.95 497.78 2201.4 498.167 2222.42 515.935 2245.09 531.046 2269.48 543.521 2273.54 545.601 2277.54 547.759 2281.7 549.685 2287.26 552.253 2293.01 554.548 2298.76 556.834 2304.06 558.949 2309.41 560.994 2314.87 562.864 2320.21 564.68 2325.63 566.371 2331.12 567.949 2337.59 569.818 2344.21 571.463 2350.91 572.995 2355.92 574.133 2360.92 575.301 2366.06 576.248 2374.24 577.765 2382.69 578.892 2391.22 579.912 2395.33 580.401 2399.32 581.063 2403.51 581.435 2416.57 582.601 2429.94 583.319 2443.82 583.319 2444.16 583.319 2444.44 583.275 2444.78 583.274 2455.84 583.248 2466.48 582.668 2476.87 581.786 2478.8 581.621 2480.77 581.504 2482.68 581.312 2492.72 580.299 2502.42 578.868 2511.87 577.11 2513.87 576.736 2515.87 576.338 2517.85 575.931 2523.22 574.831 2528.32 573.397 2533.52 572.069 2540.63 570.247 2547.64 568.308 2554.42 566.084 2558.88 564.622 2563.26 563.06 2567.59 561.435 2573.88 559.07 2580.03 556.543 2586.05 553.857 2590.29 551.965 2594.53 550.077 2598.65 548.036 2604.43 545.164 2610.04 542.084 2615.58 538.939 2619.51 536.72 2623.5 534.582 2627.3 532.238 2632.96 528.757 2638.38 525.036 2643.81 521.305 2647.17 518.994 2650.65 516.819 2653.93 514.42 2661.97 508.548 2669.77 502.435 2677.37 496.115L2897.29 692.266C2881.1 698.342 2864.14 703.838 2845.55 708.966L2728.98 604.998 2728.98 736.921 2517.38 736.921 2517.38 623.766C2494.41 627.863 2470.05 630.251 2443.82 630.251 2414.72 630.251 2387.28 627.937 2361.34 623.453 2341.98 620.113 2323.54 615.427 2305.78 609.725L2305.78 736.921 2200 736.921 2199.99 736.921 2094.2 736.921 2094.2 609.725C2076.44 615.427 2058.01 620.113 2038.64 623.453 2012.7 627.937 1985.27 630.251 1956.16 630.251 1929.94 630.251 1905.58 627.863 1882.61 623.766L1882.61 736.921 1671.01 736.921 1671.01 604.998 1554.44 708.966C1535.85 703.838 1518.89 698.342 1502.69 692.266L1722.62 496.115ZM1293.81 630.292 1340.35 661.329C1449.43 734.063 1514.73 758.032 1684.36 787.588 1858.81 817.986 1905.31 829.476 1935.04 849.531 1952.36 861.219 1961.22 874.534 1969.87 901.895 1980.22 934.661 1998.48 969.977 2020 1001.1L2025.22 1008.12 2010.12 1015.41C1998.87 1021.52 1987.96 1028.16 1977.4 1035.3L1969.1 1041.52 1962.65 1038.51C1947.2 1032.41 1930.36 1029.06 1912.74 1029.06 1903.34 1029.06 1894.17 1030.02 1885.3 1031.83L1842.04 1039.03C1685.72 1067.1 1547.71 1053.06 1462.41 1000.42 1442.78 988.302 1409.57 960.735 1411.33 958.013 1411.74 957.37 1421.46 959.262 1432.92 962.215 1522.06 985.198 1634.66 988.866 1734.14 972.049 1769.25 966.121 1829.07 950.532 1825.13 948.344 1823.81 947.608 1810.74 948.229 1796.1 949.731 1724.08 957.081 1631.64 957.153 1572.21 949.897 1534.85 945.333 1485.59 933.514 1456.49 922.127 1414.6 905.744 1373.35 876.479 1348.44 845.472 1338.11 832.627 1318.21 801.684 1319.32 800.2 1319.59 799.846 1330.82 804.383 1344.28 810.282 1437.1 850.946 1555.47 878.645 1647.49 881.23 1676.52 882.053 1723.39 878.862 1728.71 875.707 1730.19 874.827 1721.02 872.578 1708.33 870.707 1635.53 859.969 1543.45 838.926 1497.08 822.431 1388.2 783.698 1326.62 728.721 1298.87 645.474L1293.81 630.292ZM3106.18 630.292 3101.11 645.474C3073.37 728.721 3011.79 783.698 2902.91 822.431 2856.54 838.926 2764.46 859.969 2691.66 870.707 2678.97 872.578 2669.79 874.827 2671.28 875.707 2676.6 878.862 2723.46 882.053 2752.5 881.23 2844.52 878.645 2962.9 850.946 3055.7 810.282 3069.17 804.383 3080.4 799.846 3080.67 800.2 3081.78 801.684 3061.88 832.627 3051.56 845.472 3026.64 876.479 2985.38 905.744 2943.5 922.127 2914.4 933.514 2865.14 945.333 2827.78 949.897 2768.35 957.153 2675.91 957.081 2603.89 949.731 2589.24 948.229 2576.18 947.608 2574.86 948.344 2570.92 950.532 2630.74 966.121 2665.84 972.049 2765.34 988.866 2877.94 985.198 2967.07 962.215 2978.53 959.262 2988.25 957.37 2988.66 958.013 2990.42 960.735 2957.21 988.302 2937.58 1000.42 2852.28 1053.06 2714.27 1067.1 2557.95 1039.03L2514.68 1031.83C2505.82 1030.02 2496.65 1029.06 2487.25 1029.06 2469.63 1029.06 2452.8 1032.41 2437.34 1038.51L2430.9 1041.52 2422.59 1035.3C2412.03 1028.16 2401.12 1021.52 2389.87 1015.41L2374.77 1008.12 2379.99 1001.1C2401.51 969.977 2419.77 934.661 2430.13 901.895 2438.77 874.534 2447.62 861.219 2464.95 849.531 2494.68 829.476 2541.17 817.986 2715.63 787.588 2885.26 758.032 2950.56 734.063 3059.63 661.329L3106.18 630.292ZM1882.61 736.925 2094.2 736.925 2094.2 913.527C2087.73 932.95 2080.28 956.792 2071.16 989.335 2069.62 985.458 2067.62 981.782 2065.17 978.411L2060.65 972.316C2041.47 944.496 2025.9 914.033 2017.31 886.869 2006.35 852.159 1992.18 828 1962.85 808.208 1944.54 795.856 1919.67 786.285 1882.61 776.57L1882.61 736.925ZM2305.78 736.925 2517.38 736.925 2517.38 776.57C2480.33 786.285 2455.45 795.856 2437.14 808.208 2407.8 828 2393.64 852.159 2382.67 886.869 2374.09 914.033 2358.52 944.496 2339.34 972.316L2334.82 978.411C2332.38 981.782 2330.37 985.458 2328.84 989.335 2319.7 956.792 2312.25 932.95 2305.78 913.527L2305.78 736.925ZM2199.99 818.633 2199.99 818.633 2200 818.633C2200.23 818.646 2200.45 818.661 2200.69 818.677 2225.68 820.379 2262.41 931.138 2288.71 1023.06 2314.17 1029.81 2338.81 1039.34 2362.2 1051.5L2337.38 1094.52 2200 1094.52 2199.99 1094.52 2062.61 1094.52 2037.79 1051.5C2061.17 1039.34 2085.81 1029.81 2111.28 1023.06 2137.57 931.138 2174.31 820.379 2199.29 818.677 2199.52 818.661 2199.76 818.646 2199.99 818.633ZM1997.27 1075.61 2022.15 1118.76 1927.3 1283.2C1899.48 1292.95 1872.12 1304.15 1845.39 1316.82 1848.6 1297.19 1853.42 1277.85 1859.83 1259.01 1795.19 1191.86 1723.97 1110.86 1734.51 1089.2 1734.61 1088.99 1734.71 1088.78 1734.82 1088.57 1734.95 1088.37 1735.08 1088.17 1735.21 1087.97 1738.93 1082.4 1749.84 1079.97 1765.6 1079.86 1807.79 1079.54 1884.71 1095.74 1951.6 1112.15 1965.81 1098.75 1981.08 1086.52 1997.27 1075.61ZM2402.72 1075.61C2418.91 1086.52 2434.18 1098.75 2448.39 1112.15 2515.27 1095.74 2592.2 1079.54 2634.39 1079.86 2650.15 1079.97 2661.05 1082.4 2664.77 1087.97 2664.9 1088.17 2665.04 1088.37 2665.17 1088.57 2665.27 1088.78 2665.37 1088.99 2665.48 1089.2 2676.01 1110.86 2604.8 1191.86 2540.17 1259.01 2546.56 1277.85 2551.4 1297.19 2554.6 1316.82 2527.87 1304.15 2500.52 1292.95 2472.68 1283.2L2377.84 1118.76 2402.72 1075.61ZM1598.78 1096.36C1613.92 1098.46 1629.35 1100.18 1645.25 1101.21 1640.06 1148.53 1623.46 1200.03 1570.97 1283.89 1511.85 1378.35 1483.78 1537.42 1605.94 1681.94 1775.87 1882.99 2004.03 1735.55 2199.99 1896.55L2199.99 1896.56C2199.99 1896.55 2199.99 1896.55 2199.99 1896.55 2199.99 1896.55 2199.99 1896.55 2200 1896.56L2200 1896.55C2395.96 1735.55 2624.12 1882.99 2794.05 1681.94 2916.21 1537.42 2888.13 1378.35 2829.02 1283.89 2776.53 1200.03 2759.93 1148.53 2754.74 1101.21 2770.64 1100.18 2786.07 1098.46 2801.21 1096.36 2814.39 1223.94 2927.41 1282.32 2927.41 1473.24 2927.41 1587.29 2828.07 1796.31 2630.61 1830.52 2483.44 1855.94 2310.92 1845.75 2199.99 1960.97 2089.07 1845.75 1916.55 1855.94 1769.37 1830.52 1571.92 1796.31 1472.58 1587.29 1472.58 1473.24 1472.58 1282.32 1585.6 1223.94 1598.78 1096.36ZM2062.61 1142.98 2199.99 1142.98 2200 1142.98 2337.38 1142.98 2406.67 1263.14C2347.47 1247.75 2286.57 1238.8 2225.01 1236.74 2217.96 1236.51 2208.89 1236.38 2200.06 1236.37 2200.04 1236.37 2200.02 1236.37 2200 1236.37L2199.99 1236.37C2199.97 1236.37 2199.95 1236.37 2199.93 1236.37 2191.09 1236.38 2182.03 1236.51 2174.98 1236.74 2113.42 1238.8 2052.51 1247.75 1993.32 1263.14L2062.61 1142.98ZM1685.6 1167.77C1687.51 1167.67 1689.13 1168.88 1690.76 1171.42 1692.21 1173.67 1693.67 1176.97 1695.36 1181.35 1702.64 1200.17 1703.25 1216.09 1697.36 1233.73 1692.76 1247.54 1690.01 1251.89 1678.55 1263.36L1676.08 1265.82C1675.05 1274.42 1674.23 1283.06 1673.71 1291.74 1681.77 1275.66 1700.52 1259.04 1718.43 1252.92L1724.82 1250.73C1729.22 1249.23 1733.81 1252.48 1733.85 1257.14L1733.9 1262.77C1734.1 1284.63 1727.25 1300.78 1710.87 1317.02 1700.05 1327.75 1694.8 1331.17 1682.4 1335.53 1678.91 1336.75 1675.85 1338.09 1673.29 1339.38 1674.03 1358.44 1675.78 1377.52 1678.46 1396.47 1679.38 1394.28 1680.32 1392.09 1681.34 1389.29 1689.39 1367.18 1716.57 1343.36 1738.1 1339.52 1743.3 1338.6 1743.66 1339.45 1744.23 1353.46 1745.17 1376.48 1738.91 1394.14 1723.82 1411.11 1713.16 1423.1 1708.88 1426.27 1695.92 1431.77L1685.43 1436.23C1689.71 1456.92 1694.91 1477.3 1700.91 1497.1 1701.05 1496.14 1701.19 1495.54 1701.32 1494.49 1703.92 1472 1710.33 1459.06 1727.06 1442.46 1742.31 1427.34 1762.97 1415.42 1768.84 1418.36 1773.8 1420.85 1773.31 1460.31 1768.13 1475.43 1761.21 1495.61 1743.36 1515.66 1723.64 1525.38 1718.99 1527.67 1715.03 1530.02 1712.45 1531.9 1719.82 1552.36 1728.83 1572.44 1739.13 1592.24 1739.27 1590.56 1739.41 1589.05 1739.56 1586.7 1741.32 1558.76 1749.4 1540.98 1769.64 1520.6 1780.83 1509.32 1792.39 1501.27 1806.44 1494.96 1812.03 1492.44 1812.4 1492.66 1814.75 1500.05 1818.65 1512.34 1819.16 1544.05 1815.68 1557.41 1808.98 1583.1 1792.11 1604.9 1767.48 1619.67 1762.98 1622.37 1760.12 1624.29 1758.01 1625.93 1770.9 1647.58 1785.13 1668.95 1800.03 1690.18 1797.73 1671.93 1799.69 1649.12 1805.11 1635.09 1814.01 1612.04 1833.28 1588.71 1852.38 1577.83 1855.78 1575.9 1856.62 1576.61 1860.5 1584.72 1884.03 1633.99 1873.05 1687.2 1832.31 1721.16L1826.07 1726.36C1836.81 1740.94 1847.67 1755.51 1858.62 1770.08 1860.95 1773.2 1860.33 1777.62 1857.21 1779.96 1854.09 1782.3 1849.68 1781.68 1847.34 1778.56 1833.49 1760.14 1819.64 1741.69 1806.11 1723.11 1801.81 1717.96 1797.5 1712.78 1793.66 1708.04L1783.27 1695.2 1766.74 1701.1C1721.96 1717.13 1682.11 1708.17 1649.91 1674.85 1642.16 1666.83 1634.38 1658.13 1632.62 1655.53 1628.33 1649.18 1630.76 1647.31 1652.94 1639.91 1685.81 1628.95 1719.08 1632.79 1746.56 1650.71 1753.89 1655.48 1759.11 1657.78 1758.17 1655.82 1757.59 1654.62 1752.4 1644.93 1748.45 1637.53 1739.82 1623.26 1731.71 1608.83 1724.26 1594.2 1721.86 1593.63 1717.65 1594.35 1710.34 1596.65 1690.54 1602.88 1659.81 1601.47 1641.91 1593.5 1614.68 1581.39 1579.45 1542.24 1589.44 1535.2 1596.55 1530.19 1620.31 1526.32 1638.89 1527.16 1661.04 1528.15 1680.14 1536.21 1698.7 1552.36L1708.82 1561.17C1705.13 1552.5 1701.62 1543.77 1698.48 1534.94 1693.04 1519.63 1688.02 1503.87 1683.47 1487.79 1682.94 1487.7 1682.39 1487.73 1681.79 1487.92 1679.21 1488.71 1668.16 1489.3 1657.22 1489.23 1629.62 1489.05 1613.67 1481.71 1594.42 1460.33 1581.01 1445.42 1569.68 1425.2 1572.92 1421.95 1573.71 1421.17 1580.38 1419.7 1587.76 1418.7 1618.99 1414.45 1654.43 1428.89 1671.17 1452.71 1672.98 1455.29 1674.56 1457.36 1676.07 1459.33 1670.04 1434.05 1665.32 1408.16 1662.35 1382.03L1657.08 1381.32C1637.19 1378.64 1623.39 1371.8 1608.97 1357.51 1597.45 1346.08 1594.82 1341.94 1589.79 1327.12 1586.58 1317.69 1584.12 1306.79 1584.31 1302.91 1584.66 1295.95 1584.76 1295.87 1592.53 1296.71 1620.33 1299.69 1645.54 1317.02 1659.21 1341.95 1658.25 1319.09 1658.76 1296.2 1660.98 1273.56 1660.5 1269.79 1659.99 1266.8 1659.46 1265.5 1645.44 1231.8 1649.33 1205.29 1672.18 1178.88 1678.42 1171.67 1682.42 1167.92 1685.6 1167.77L1685.6 1167.77ZM2714.38 1167.77 2714.38 1167.77C2717.57 1167.92 2721.58 1171.67 2727.81 1178.88 2750.66 1205.29 2754.55 1231.8 2740.53 1265.5 2740 1266.8 2739.49 1269.79 2739 1273.56 2741.22 1296.2 2741.74 1319.09 2740.78 1341.95 2754.44 1317.02 2779.66 1299.69 2807.46 1296.71 2815.23 1295.87 2815.33 1295.95 2815.67 1302.91 2815.87 1306.79 2813.41 1317.69 2810.2 1327.12 2805.17 1341.94 2802.54 1346.08 2791.01 1357.51 2776.6 1371.8 2762.8 1378.64 2742.9 1381.32L2737.64 1382.03C2734.67 1408.16 2729.95 1434.05 2723.92 1459.33 2725.43 1457.36 2727.01 1455.29 2728.82 1452.71 2745.56 1428.89 2780.99 1414.45 2812.23 1418.7 2819.6 1419.7 2826.28 1421.17 2827.07 1421.95 2830.31 1425.2 2818.98 1445.42 2805.56 1460.33 2786.32 1481.71 2770.37 1489.05 2742.77 1489.23 2731.83 1489.3 2720.77 1488.71 2718.19 1487.92 2717.6 1487.73 2717.05 1487.7 2716.52 1487.79 2711.97 1503.87 2706.95 1519.63 2701.51 1534.94 2698.36 1543.77 2694.87 1552.5 2691.17 1561.17L2701.29 1552.36C2719.84 1536.21 2738.95 1528.15 2761.09 1527.16 2779.68 1526.32 2803.44 1530.19 2810.55 1535.2 2820.54 1542.24 2785.31 1581.39 2758.08 1593.5 2740.18 1601.47 2709.45 1602.88 2689.64 1596.65 2682.34 1594.35 2678.12 1593.63 2675.72 1594.2 2668.27 1608.83 2660.17 1623.26 2651.55 1637.53 2647.59 1644.93 2642.4 1654.62 2641.82 1655.82 2640.88 1657.78 2646.09 1655.48 2653.43 1650.71 2680.91 1632.79 2714.18 1628.95 2747.04 1639.91 2769.22 1647.31 2771.65 1649.18 2767.36 1655.53 2765.61 1658.13 2757.83 1666.83 2750.07 1674.85 2717.88 1708.17 2678.02 1717.13 2633.25 1701.1L2616.72 1695.2 2606.33 1708.04C2602.49 1712.78 2598.18 1717.96 2593.88 1723.11 2580.35 1741.69 2566.5 1760.14 2552.65 1778.56 2550.31 1781.68 2545.89 1782.3 2542.78 1779.96 2539.66 1777.62 2539.03 1773.2 2541.37 1770.08 2552.32 1755.51 2563.18 1740.94 2573.91 1726.36L2567.67 1721.16C2526.94 1687.2 2515.95 1633.99 2539.49 1584.72 2543.38 1576.61 2544.21 1575.9 2547.6 1577.83 2566.71 1588.71 2585.97 1612.04 2594.88 1635.09 2600.3 1649.12 2602.26 1671.93 2599.96 1690.18 2614.85 1668.95 2629.08 1647.58 2641.98 1625.93 2639.88 1624.29 2637 1622.37 2632.51 1619.67 2607.87 1604.9 2591 1583.1 2584.31 1557.41 2580.82 1544.05 2581.34 1512.34 2585.24 1500.05 2587.59 1492.66 2587.96 1492.44 2593.55 1494.96 2607.6 1501.27 2619.15 1509.32 2630.35 1520.6 2650.59 1540.98 2658.67 1558.76 2660.43 1586.7 2660.58 1589.05 2660.71 1590.56 2660.85 1592.24 2671.16 1572.44 2680.17 1552.36 2687.54 1531.9 2684.96 1530.02 2681 1527.67 2676.35 1525.38 2656.63 1515.66 2638.77 1495.61 2631.86 1475.43 2626.68 1460.31 2626.19 1420.85 2631.15 1418.36 2637.02 1415.42 2657.68 1427.34 2672.93 1442.46 2689.67 1459.06 2696.06 1472 2698.67 1494.49 2698.8 1495.54 2698.94 1496.14 2699.07 1497.1 2705.08 1477.3 2710.28 1456.92 2714.56 1436.23L2704.07 1431.77C2691.11 1426.27 2686.83 1423.1 2676.16 1411.11 2661.07 1394.14 2654.82 1376.48 2655.75 1353.46 2656.32 1339.45 2656.69 1338.6 2661.89 1339.52 2683.42 1343.36 2710.6 1367.18 2718.65 1389.29 2719.67 1392.09 2720.61 1394.28 2721.53 1396.47 2724.21 1377.52 2725.96 1358.44 2726.7 1339.38 2724.14 1338.09 2721.08 1336.75 2717.59 1335.53 2705.19 1331.17 2699.94 1327.75 2689.12 1317.02 2672.74 1300.78 2665.89 1284.63 2666.09 1262.77L2666.14 1257.14C2666.18 1252.48 2670.76 1249.23 2675.17 1250.73L2681.56 1252.92C2699.48 1259.04 2718.22 1275.66 2726.28 1291.74 2725.76 1283.06 2724.94 1274.42 2723.91 1265.82L2721.44 1263.36C2709.98 1251.89 2707.22 1247.54 2702.63 1233.73 2696.74 1216.09 2697.35 1200.17 2704.62 1181.35 2706.31 1176.97 2707.78 1173.67 2709.23 1171.42 2710.86 1168.88 2712.47 1167.67 2714.38 1167.77ZM2199.99 1273.19C2199.99 1273.19 2199.99 1273.19 2200 1273.19 2208.61 1273.22 2217.22 1273.33 2223.79 1273.56 2351.21 1277.82 2475.78 1312.57 2587.03 1374.9 2598.51 1381.34 2602.2 1396.04 2595.49 1407.36L2569.31 1451.6C2562.6 1462.92 2548.03 1466.59 2536.53 1460.23 2443.19 1408.61 2336.88 1377.7 2223.79 1373.88 2217.22 1373.66 2208.61 1373.88 2200 1373.88L2199.99 1373.88C2191.37 1373.88 2182.76 1373.66 2176.2 1373.88 2063.11 1377.7 1956.8 1408.61 1863.46 1460.23 1851.95 1466.59 1837.39 1462.92 1830.69 1451.6L1804.49 1407.36C1797.79 1396.04 1801.48 1381.34 1812.96 1374.9 1924.21 1312.57 2048.78 1277.82 2176.2 1273.56 2182.76 1273.33 2191.37 1273.22 2199.99 1273.19ZM2199.99 1419.19C2199.99 1419.19 2199.99 1419.19 2200 1419.19 2300.77 1419.65 2399.75 1442.49 2487.6 1485.54 2458.37 1544.09 2390.51 1590.54 2303.37 1611.65 2281.61 1645.71 2243.52 1668.22 2200 1668.23L2199.99 1668.23C2156.46 1668.22 2118.38 1645.71 2096.62 1611.65 2009.47 1590.54 1941.62 1544.09 1912.39 1485.54 2000.24 1442.49 2099.22 1419.65 2199.99 1419.19ZM2199.99 1458.71C2152.16 1458.72 2113.38 1497.53 2113.38 1545.41 2113.38 1593.3 2152.16 1632.12 2199.99 1632.12L2200 1632.12C2247.84 1632.12 2286.6 1593.3 2286.6 1545.41 2286.6 1497.53 2247.84 1458.72 2200 1458.71L2199.99 1458.71ZM2014.23 1649.94C2016.02 1649.94 2017.82 1650.85 2018.81 1652.66L2037.93 1687.76 2077.18 1695.12C2081.23 1695.87 2082.83 1700.83 2080 1703.82L2052.57 1732.87 2057.71 1772.52C2058.24 1776.61 2054.03 1779.68 2050.31 1777.91L2014.23 1760.76 1978.16 1777.91C1974.43 1779.68 1970.23 1776.61 1970.75 1772.52L1975.9 1732.87 1948.46 1703.82C1945.63 1700.83 1947.23 1695.87 1951.29 1695.12L1990.54 1687.76 2009.66 1652.66C2010.64 1650.85 2012.44 1649.94 2014.23 1649.94ZM2385.76 1649.94C2387.55 1649.94 2389.34 1650.85 2390.33 1652.66L2409.45 1687.76 2448.7 1695.12C2452.75 1695.87 2454.36 1700.83 2451.53 1703.82L2424.1 1732.87 2429.23 1772.52C2429.77 1776.61 2425.55 1779.68 2421.83 1777.91L2385.76 1760.76 2349.68 1777.91C2345.95 1779.68 2341.75 1776.61 2342.28 1772.52L2347.42 1732.87 2319.99 1703.82C2317.15 1700.83 2318.76 1695.87 2322.81 1695.12L2362.07 1687.76 2381.19 1652.66C2382.17 1650.85 2383.96 1649.94 2385.76 1649.94ZM2199.99 1683.71C2202.29 1683.71 2204.4 1684.97 2205.5 1686.99L2228.55 1729.29 2275.86 1738.16C2280.75 1739.07 2282.68 1745.04 2279.27 1748.66L2246.2 1783.67 2252.39 1831.46C2253.04 1836.39 2247.97 1840.08 2243.47 1837.94L2200 1817.29 2200 1817.28 2199.99 1817.29 2199.99 1817.28 2199.99 1817.29 2156.51 1837.94C2152.02 1840.08 2146.96 1836.39 2147.59 1831.46L2153.79 1783.67 2120.72 1748.66C2117.31 1745.04 2119.25 1739.07 2124.13 1738.16L2171.44 1729.29 2194.49 1686.99C2195.59 1684.97 2197.7 1683.71 2199.99 1683.71Z" fill="currentColor" fill-rule="evenodd"/></g></svg>