<svg xmlns="http://www.w3.org/2000/svg" width="400" height="400"><g fill-rule="evenodd"><path d="M89.324 50.081a6498.828 6498.828 0 0 0-15.929 14.1A3731.56 3731.56 0 0 1 60.02 76a5275.832 5275.832 0 0 0-13.705 12.1c-2.165 1.925-4.264 3.5-4.665 3.5-.964 0-6.421-3.294-16.369-9.88-9.216-6.101-9.582-6.27-13.057-6.049-11.936.76-11.441 14.623 1.145 32.097 1.844 2.56 1.939 2.801 1.255 3.2-6.024 3.519-7.682 8.6-4.713 14.437 3.314 6.514 9.474 13.986 15.352 18.623 3.07 2.422 3.57 2.977 3.337 3.71-1.958 6.174-1.493 8.54 2.502 12.744 6.601 6.945 18.527 14.007 28.19 16.692 2.854.793 2.919.985 1.923 5.715-1.665 7.906-4.862 15.427-9.493 22.328C21.709 249.953 37.31 311.36 85.34 337.536c14.233 7.757 37.933 13.076 64.46 14.466 21.271 1.114 33.74 7.992 46.54 25.672 3.896 5.38 3.505 5.371 7.134.175 7.205-10.315 13.78-16.071 23.781-20.82 7.405-3.516 11.535-4.299 28.727-5.449 12.209-.817 27.309-3.283 39.018-6.373 60.237-15.894 87.887-87.704 53.65-139.338-5.813-8.768-10.178-19.761-10.391-26.174l-.059-1.765 4.4-1.555c19.38-6.846 33.048-19.743 28.8-27.175-1.014-1.773-.713-2.292 3.039-5.253 7.929-6.254 16.719-18.637 16.752-23.597.021-3.323-2.026-6.834-5.005-8.579-2.208-1.294-2.271-.883.799-5.171 8.687-12.13 11.328-23.272 6.657-28.082-4.651-4.788-7.951-4.292-18.708 2.813-9.072 5.992-16.072 10.269-16.806 10.269-.509 0-3.477-2.535-16.143-13.789a2398.122 2398.122 0 0 0-9.98-8.811c-2.51-2.2-6.385-5.62-8.61-7.6-2.226-1.98-6.015-5.333-8.421-7.452-2.406-2.119-7.152-6.304-10.547-9.3-7.198-6.353-6.345-6.086-9.627-3.015-28.054 26.249-62.832 26.654-90.562 1.054-4.551-4.202-3.981-4.17-7.975-.442-27.377 25.547-62.705 25.759-89.933.54-2.129-1.972-4.053-3.585-4.276-3.585-.223 0-5.952 4.897-12.73 10.881m16.404 11.037c27.176 19.247 61.168 19.817 88.302 1.479 5.837-3.944 5.941-3.944 11.929-.007 27.371 17.997 59.772 17.846 86.673-.404 2.745-1.862 5.181-3.386 5.412-3.386.454 0 2.294 1.597 25.352 22 8.329 7.37 16.094 14.21 17.254 15.2 1.161.99 2.074 2.07 2.03 2.4-.071.529-4.973 2.397-8.763 3.338-1.206.299-.688.715-16.511-13.257-4.559-4.026-8.495-7.251-8.748-7.167-.326.108-.516 3.836-.658 12.919L307.8 107l-21.487.103-21.486.104-.114 4.282-.113 4.282-3 .86c-12.983 3.722-19.636 9.75-23.586 21.369-2.089 6.148-9.898 20.4-11.177 20.4-.37 0-.749-.997-3.462-9.108l-1.775-5.307V107.2h-43.2v35.4l-2.64 7.92c-1.625 4.877-2.817 7.862-3.1 7.77-1.545-.503-8.26-12.495-10.466-18.69-4.589-12.891-9.625-17.978-21.994-22.213l-4.8-1.644-.113-4.268-.114-4.268-21.486-.104L92.2 107l-.106-12.9c-.122-14.991.21-14.223-4.391-10.161a8236.904 8236.904 0 0 1-6.903 6.084c-2.09 1.839-6.016 5.298-8.725 7.687-5.611 4.949-4.608 4.713-11.175 2.627-5.244-1.665-5.968-.474 7.526-12.383C72.511 84.349 81.043 76.81 87.387 71.2l12.773-11.294c1.673-1.475 1.819-1.443 5.568 1.212M174.8 82.257c-9.409 3.023-26.529 4.225-36.319 2.55-3.487-.596-3.281-1.3-3.281 11.217V107.2h43.2V81.6l-.9.04c-.495.021-1.71.299-2.7.617m47.095-.419c-.162.163-.295 5.935-.295 12.829V107.2h43.2V96.024c0-6.772-.153-11.271-.387-11.416-.213-.132-2.508.058-5.1.422-8.931 1.254-21.901.393-31.513-2.092-5.477-1.416-5.571-1.434-5.905-1.1M21.381 90.582c25.672 16.838 36.176 20.621 77.219 27.812 45.199 7.919 49.454 9.765 54.255 23.542 1.633 4.687 5.777 13.119 8.476 17.248 2.559 3.914 2.611 3.535-.741 5.377-1.434.788-3.855 2.255-5.379 3.26l-2.773 1.826-3.236-1.023c-5.018-1.585-8.655-1.687-16.202-.455-23.803 3.885-29.494 4.374-43.916 3.77-21.818-.915-37.844-6.307-48.884-16.449-3.087-2.836-2.751-3.057 2.704-1.773 23.746 5.591 55.628 4.926 75.465-1.575 4.549-1.49 3.917-1.524-10.169-.535-44.423 3.117-74.16-6.122-87.249-27.108-2.611-4.187-2.373-4.39 2.649-2.258 24.287 10.308 53.746 16.056 72.937 14.23 6.151-.585 6.303-1.146.554-2.043-51.609-8.047-75.282-21.558-83.268-47.528-.449-1.46.199-1.145 7.558 3.682M386 86.415c0 .84-2.884 7.863-4.256 10.362-10.533 19.199-31.819 29.554-76.451 37.191-8.56 1.465-8.935 1.782-2.864 2.421 10.388 1.094 24.693-.092 38.971-3.231 11.899-2.616 24.464-6.583 34.58-10.916 5.697-2.441 5.774-2.225 1.476 4.156-12.94 19.215-42.418 28-84.656 25.23-14.543-.954-14.627-.956-14.163-.461.607.648 11.908 3.442 17.85 4.413 19.617 3.206 41.44 2.529 60.209-1.868 5.442-1.275 5.777-1.064 2.774 1.737-12.191 11.368-28.74 16.313-54.67 16.338-15.295.014-16.382-.078-33.041-2.809-13.7-2.247-15.413-2.255-22.08-.11l-2.52.811-2.68-1.795a85.84 85.84 0 0 0-5.378-3.275c-3.267-1.793-3.251-1.77-2.258-3.234 3.91-5.765 8.333-14.432 9.989-19.575 4.375-13.59 8.075-15.172 55.168-23.598 40.812-7.303 52.097-11.424 77-28.126 5.834-3.912 7-4.522 7-3.661m-184.386 38.799c4.005 4.005 9.219 16.318 16.058 37.918l.928 2.932 3.8 1.315c5.284 1.83 10 4.225 10 5.078 0 .376-.97 2.361-2.156 4.413l-2.156 3.73-28.206.103-28.205.102-2.459-4.207c-1.353-2.314-2.335-4.409-2.182-4.656.414-.67 7.177-3.74 10.88-4.939l3.241-1.049.639-2.277c4.52-16.104 11.745-33.636 15.592-37.836 1.522-1.662 2.975-1.878 4.226-.627m-80.875 53.208c5.797.762 15.075 2.442 21.038 3.808 7.438 1.705 7.081 1.718 9.559-.366 6.182-5.198 6.572-5.211 9.343-.309 2.522 4.462 2.504 4.263.66 7.378-.803 1.357-4.555 7.867-8.337 14.467-3.782 6.6-7.405 12.887-8.05 13.971-1.129 1.896-1.375 2.059-6.363 4.221-2.854 1.238-6.494 2.916-8.089 3.729-1.596.813-2.991 1.479-3.1 1.479-.514 0-.101-3.664.858-7.62l1.058-4.366-2.664-2.907c-17.066-18.623-25.038-30.629-22.007-33.145 1.396-1.158 8.705-1.313 16.094-.34m123.895.828c1.301.908 3.107 2.33 4.013 3.16l1.648 1.509 2.352-.57c21.419-5.196 39.669-7.069 42.388-4.351 2.67 2.67-6.254 15.959-21.535 32.069-3.624 3.821-3.784 4.133-3.075 5.998.397 1.045 1.145 4.396 1.748 7.835.335 1.908-.133 1.94-3.484.232-1.369-.698-4.829-2.286-7.689-3.529l-5.2-2.261-2.55-4.371c-9.057-15.523-16.45-28.652-16.45-29.212 0-.956 4.39-8.159 4.973-8.159.272 0 1.559.743 2.861 1.65m-159.157 2.885c.663.646-1.033 9.03-3.049 15.065-2.684 8.037-5.287 13.37-10.322 21.15-21.045 32.515-12.115 74.204 20.427 95.358 11.84 7.698 31.023 12.316 58.467 14.077 19.35 1.242 30.804 4.922 43.872 14.098 5.574 3.913 4.876 3.797 8.234 1.371 14.314-10.343 25.843-14.211 46.094-15.465 31.029-1.922 51.064-7.613 64-18.18 28.534-23.307 34.311-61.45 13.975-92.27-6.27-9.502-11.571-23.16-12.958-33.39-.306-2.257-.417-2.202 5.11-2.572l4.217-.282.276 1.552c1.937 10.907 6.381 21.952 12.348 30.691 5.887 8.622 9.775 18.642 11.9 30.662.727 4.111.72 20.432-.01 24.2-5.166 26.659-20.292 47.035-43.058 58.001-8.347 4.02-24.21 8.04-38.6 9.781-7.428.899-15.552 1.617-18.4 1.625-15.787.046-31.544 6.429-44.793 18.146-3.624 3.206-2.913 3.231-6.792-.238-12.911-11.544-26.209-16.912-44.415-17.927-43.866-2.446-67.481-11.85-84.505-33.652-20.542-26.307-21.923-64.158-3.329-91.255 5.483-7.99 12.234-25.324 12.234-31.41 0-.384 8.641.438 9.077.864M234.633 202.4c7.832 13.61 7.614 12.872 3.487 11.795-20.42-5.327-56.924-5.328-76.52-.002-4.427 1.203-4.691 2.098 3.603-12.193 1.468-2.53 3.526-6.086 4.573-7.903l1.903-3.302 28.196.102 28.197.103 6.561 11.4m-136.716-5.7c2.459 5.273 1.288 12.165-2.859 16.834-1.621 1.826-1.858 2.32-1.858 3.879 0 1.997.404 2.251 1.331.836 2.044-3.119 6.856-6.405 10.166-6.942l1.41-.229-.18 3.423c-.322 6.128-3.603 10.868-9.576 13.834L93.4 229.8l.012 3.2c.014 3.785.513 7.8.97 7.8.178 0 .794-.96 1.368-2.134 1.932-3.948 8.907-9.47 11.35-8.986 1.292.256.952 7.923-.474 10.698-1.668 3.248-5.144 6.686-8.126 8.038-2.97 1.347-2.979 1.389-1.488 6.992 1.585 5.955 2.557 7.44 2.582 3.946.03-4.114 8.41-13.003 12.363-13.114 1.435-.04 1.442-.032 1.801 2.081 1.28 7.514-2.377 15.027-9.358 19.228-3.214 1.934-3.216 1.995-.257 8.22 2.57 5.407 2.83 5.548 3.45 1.87.954-5.651 5.384-11.679 10.856-14.769 4.126-2.33 4.751-1.574 4.751 5.748 0 8.328-2.751 13.502-9.7 18.243-2.857 1.949-2.965 1.313 1.305 7.703 4.327 6.475 4.276 6.436 4.569 3.541.8-7.9 2.37-11.497 7.069-16.196 3.815-3.815 4.616-3.979 5.904-1.209 4.025 8.654 2.323 18.929-4.247 25.642-3.081 3.149-3.11 2.719.498 7.492 3.135 4.146 3.305 4.503 2.522 5.286-1.017 1.017-1.893.385-4.744-3.42-3.626-4.841-8.602-11.126-9.595-12.119-.727-.727-.812-.723-3.486.187-10.894 3.705-19.87 1.072-26.972-7.914-1.872-2.367-1.648-2.805 2.152-4.193 6.295-2.3 12.498-1.976 18.441.962 3.998 1.978 3.996 1.994.513-4.225-3.928-7.011-3.504-6.662-7.051-5.793-7.68 1.883-14.295-.056-20.112-5.893-5.076-5.095-5.392-6.642-1.585-7.76 5.83-1.712 12.924-.657 17.755 2.64 3.328 2.272 3.326 2.282.975-4.692l-2.123-6.3-4.544-.252c-6.851-.38-8.879-1.264-12.985-5.661-3.473-3.719-5.45-7.339-4.419-8.093 3.257-2.381 13.544-.021 17.956 4.119 1.635 1.534 1.672 1.096.481-5.582-1.241-6.95-1.251-6.972-3.41-7.337-6.725-1.136-14.902-11.496-12.995-16.465.677-1.766 8.351 1.034 12.087 4.41 1.132 1.024 2.139 1.861 2.237 1.861.592 0 .64-14.069.055-16.04-1.559-5.251-.067-11.175 3.837-15.225 2.441-2.533 2.999-2.486 4.329.365m208.628-.277c3.852 4.284 5.234 9.941 3.725 15.239-.635 2.225-.515 15.938.138 15.938.16 0 1.352-.947 2.649-2.104 3.845-3.431 10.89-5.942 11.586-4.129 1.92 5.005-6.326 15.355-13.135 16.485-2.065.343-2.087.393-3.28 7.298-1.2 6.947-1.188 7.025.776 5.3 4.516-3.965 14.572-6.142 17.681-3.828 1.051.782-.817 4.182-4.411 8.03-4.15 4.444-7.337 5.748-14.045 5.748h-3.331l-.818 2.3c-.449 1.265-1.356 3.83-2.014 5.7-.658 1.87-1.321 3.715-1.474 4.1-.405 1.02.496.88 2.072-.322 4.14-3.157 9.734-4.499 15.68-3.76 6.794.844 7.204 2.351 2.1 7.718-6.359 6.687-12.702 8.356-22.912 6.027-1.218-.278-1.286-.19-5.479 7.193-2.965 5.22-2.969 5.212 1.447 3.114 6.178-2.935 11.728-3.125 18.448-.634 3.346 1.24 3.635 1.765 2.065 3.748-7.268 9.177-15.858 11.796-27.038 8.246-2.867-.911-3.078-.927-3.723-.282-.902.902-4.233 5.112-8.822 11.152-3.63 4.777-4.5 5.47-5.55 4.42-.788-.788-.61-1.163 2.52-5.307 3.603-4.771 3.575-4.423.6-7.445-6.249-6.347-8.178-15.887-4.926-24.368 1.543-4.024 2.262-4.143 5.718-.943 4.904 4.54 6.897 8.493 7.648 15.17l.485 4.311.95-1.169c1.074-1.322 5.731-8.284 6.486-9.695.589-1.102.168-1.78-1.709-2.75-7.31-3.781-11.828-15.193-9.431-23.824 1.525-5.493 13.849 6.128 15.182 14.316.667 4.1.935 3.948 3.747-2.127 2.618-5.657 2.608-5.891-.348-7.656-6.968-4.163-10.433-10.905-9.659-18.796.317-3.231.898-3.604 3.576-2.294 4.673 2.286 9.307 7.615 10.455 12.022.948 3.638 1.031 3.544 2.814-3.157 1.488-5.594 1.498-5.553-1.688-7.158-3.295-1.66-6.522-4.941-8.013-8.149-1.38-2.969-1.639-10.175-.374-10.424 2.591-.511 9.529 4.972 11.364 8.98 1.605 3.505 2.26 2.011 2.302-5.25l.021-3.593-3.073-1.521c-5.818-2.88-9.134-7.737-9.456-13.853l-.178-3.359 1.731.276c2.648.424 5.364 2.121 8.193 5.119 3.041 3.224 2.983 3.206 2.983.957 0-1.527-.251-2.058-1.848-3.9-4.49-5.18-5.412-11.734-2.481-17.633 1.009-2.03 1.878-1.919 4.074.523m-86.145 22.73c20.664 2.884 36.963 7.864 54.133 16.54 8.521 4.306 8.675 4.89 3.597 13.605-4.993 8.567-4.86 8.528-13.858 4.144-41.474-20.207-88.753-20.136-129.627.195-8.223 4.09-8.32 4.062-12.757-3.717-5.504-9.647-5.403-10.149 2.877-14.301 16.817-8.434 36.382-14.354 54.235-16.411l7-.808c5.559-.644 27.893-.156 34.4.753m-8.756 29.055c14.296 1.411 27.193 4.662 40.286 10.154 7.509 3.151 7.319 2.889 4.95 6.806-5.142 8.504-18.297 17.114-31.571 20.664l-4.09 1.094-1.86 2.368c-9.597 12.215-28.988 12.369-38.84.31l-2.178-2.667-3.995-1.113c-14.247-3.969-27.655-12.983-32.249-21.68-1.841-3.487-1.82-3.539 2.203-5.395 11.893-5.486 28.925-9.597 45.1-10.887 4.723-.377 16.834-.188 22.244.346m-17.416 8.628c-18.507 6.429-14.132 33.877 5.412 33.951 18.863.072 24.398-25.257 7.275-33.288-3.589-1.684-8.943-1.963-12.687-.663m-29.792 38.513c2.319 4.398 1.905 4.075 6.329 4.942 5.192 1.017 5.257 1.226 1.655 5.314l-2.913 3.306.265 1.845c1.17 8.121 1.058 8.277-4.098 5.731l-3.693-1.823-3.875 1.869c-4.738 2.285-5.062 2.16-4.498-1.733.81-5.597.698-6.063-2.208-9.23-1.43-1.558-2.6-3.175-2.6-3.594 0-.812-.009-.809 4.8-1.791 3.476-.71 3.782-.972 5.836-4.985 2.364-4.62 2.489-4.616 5 .149m74.66-2.649c.412.605 1.325 2.293 2.029 3.752 1.439 2.987 1.868 3.259 6.275 3.985 4.692.773 4.79 1.221 1.144 5.194l-2.656 2.895.24 3.664c.133 2.015.342 3.927.465 4.248.785 2.046-.731 2.087-4.678.126l-3.842-1.908-3.873 1.873c-4.732 2.287-4.797 2.259-4.377-1.885.607-6.005.656-5.818-2.414-9.248-3.408-3.809-3.32-4.095 1.566-5.056 4.121-.812 4.648-1.211 6.515-4.94 2.149-4.29 2.395-4.475 3.606-2.7M202.8 306.763c2.538 4.742 2.421 4.653 7.363 5.61 5.746 1.113 5.787 1.237 1.842 5.562-3.517 3.854-3.588 4.085-2.907 9.424.763 5.981.621 6.109-4.144 3.725-5.259-2.631-4.826-2.617-9.332-.315-4.891 2.499-5.428 2.422-5.058-.731.144-1.231.37-3.609.503-5.285l.24-3.048-3.053-3.432c-4.154-4.668-4.082-4.981 1.346-5.871 4.96-.814 5.247-1.019 7.385-5.261 3.008-5.967 2.83-5.955 5.815-.378" fill="#fbf5f7"/><path d="M0 200v200h400V0H0v200M106.33 42.785c27.228 25.219 62.556 25.007 89.933-.54 3.994-3.728 3.424-3.76 7.975.442 27.73 25.6 62.508 25.195 90.562-1.054 3.282-3.071 2.429-3.338 9.627 3.015 3.395 2.996 8.141 7.181 10.547 9.3 2.406 2.119 6.195 5.472 8.421 7.452 2.225 1.98 6.1 5.4 8.61 7.6 2.511 2.2 7.001 6.165 9.98 8.811C354.651 89.065 357.619 91.6 358.128 91.6c.734 0 7.734-4.277 16.806-10.269 10.757-7.105 14.057-7.601 18.708-2.813 4.671 4.81 2.03 15.952-6.657 28.082-3.07 4.288-3.007 3.877-.799 5.171 2.979 1.745 5.026 5.256 5.005 8.579-.033 4.96-8.823 17.343-16.752 23.597-3.752 2.961-4.053 3.48-3.039 5.253 4.248 7.432-9.42 20.329-28.8 27.175l-4.4 1.555.059 1.765c.213 6.413 4.578 17.406 10.391 26.174 34.237 51.634 6.587 123.444-53.65 139.338-11.709 3.09-26.809 5.556-39.018 6.373-17.192 1.15-21.322 1.933-28.727 5.449-10.001 4.749-16.576 10.505-23.781 20.82-3.629 5.196-3.238 5.205-7.134-.175-12.8-17.68-25.269-24.558-46.54-25.672-26.527-1.39-50.227-6.709-64.46-14.466-48.03-26.176-63.631-87.583-33.618-132.319 4.631-6.901 7.828-14.422 9.493-22.328.996-4.73.931-4.922-1.923-5.715-9.663-2.685-21.589-9.747-28.19-16.692-3.995-4.204-4.46-6.57-2.502-12.744.233-.733-.267-1.288-3.337-3.71-5.878-4.637-12.038-12.109-15.352-18.623-2.969-5.837-1.311-10.918 4.713-14.437.684-.399.589-.64-1.255-3.2C.783 90.294.288 76.431 12.224 75.671c3.475-.221 3.841-.052 13.057 6.049 9.948 6.586 15.405 9.88 16.369 9.88.401 0 2.5-1.575 4.665-3.5S54.647 80.73 60.02 76a3731.56 3731.56 0 0 0 13.375-11.819C87.404 51.673 101.714 39.2 102.054 39.2c.223 0 2.147 1.613 4.276 3.585m-6.17 17.121L87.387 71.2c-6.344 5.61-14.876 13.149-18.961 16.754-13.494 11.909-12.77 10.718-7.526 12.383 6.567 2.086 5.564 2.322 11.175-2.627 2.709-2.389 6.635-5.848 8.725-7.687 2.09-1.84 5.196-4.577 6.903-6.084 4.601-4.062 4.269-4.83 4.391 10.161L92.2 107l21.487.103 21.486.104.114 4.268.113 4.268 4.8 1.644c12.369 4.235 17.405 9.322 21.994 22.213 2.206 6.195 8.921 18.187 10.466 18.69.283.092 1.475-2.893 3.1-7.77l2.64-7.92v-35.4h43.2v36.785l1.775 5.307c2.713 8.111 3.092 9.108 3.462 9.108 1.279 0 9.088-14.252 11.177-20.4 3.95-11.619 10.603-17.647 23.586-21.369l3-.86.113-4.282.114-4.282 21.486-.104L307.8 107l.2-12.767c.142-9.083.332-12.811.658-12.919.253-.084 4.189 3.141 8.748 7.167 15.823 13.972 15.305 13.556 16.511 13.257 3.79-.941 8.692-2.809 8.763-3.338.044-.33-.869-1.41-2.03-2.4-1.16-.99-8.925-7.83-17.254-15.2-23.058-20.403-24.898-22-25.352-22-.231 0-2.667 1.524-5.412 3.386-26.901 18.25-59.302 18.401-86.673.404-5.988-3.937-6.092-3.937-11.929.007-27.134 18.338-61.126 17.768-88.302-1.479-3.749-2.655-3.895-2.687-5.568-1.212M178.4 94.4v12.8h-43.2V96.024c0-12.517-.206-11.813 3.281-11.217 9.79 1.675 26.91.473 36.319-2.55.99-.318 2.205-.596 2.7-.617l.9-.04v12.8m49.4-11.462c9.612 2.485 22.582 3.346 31.513 2.092 2.592-.364 4.887-.554 5.1-.422.234.145.387 4.644.387 11.416V107.2h-43.2V94.667c0-6.894.133-12.666.295-12.829.334-.334.428-.316 5.905 1.1M13.823 86.9c7.986 25.97 31.659 39.481 83.268 47.528 5.749.897 5.597 1.458-.554 2.043-19.191 1.826-48.65-3.922-72.937-14.23-5.022-2.132-5.26-1.929-2.649 2.258 13.089 20.986 42.826 30.225 87.249 27.108 14.086-.989 14.718-.955 10.169.535-19.837 6.501-51.719 7.166-75.465 1.575-5.455-1.284-5.791-1.063-2.704 1.773 11.04 10.142 27.066 15.534 48.884 16.449 14.422.604 20.113.115 43.916-3.77 7.547-1.232 11.184-1.13 16.202.455l3.236 1.023 2.773-1.826c1.524-1.005 3.945-2.472 5.379-3.26 3.352-1.842 3.3-1.463.741-5.377-2.699-4.129-6.843-12.561-8.476-17.248-4.801-13.777-9.056-15.623-54.255-23.542-41.043-7.191-51.547-10.974-77.219-27.812-7.359-4.827-8.007-5.142-7.558-3.682M379 90.076c-15.984 10.72-27.475 16.433-41 20.386-9.133 2.668-16.457 4.243-36 7.74-47.093 8.426-50.793 10.008-55.168 23.598-1.656 5.143-6.079 13.81-9.989 19.575-.993 1.464-1.009 1.441 2.258 3.234a85.84 85.84 0 0 1 5.378 3.275l2.68 1.795 2.52-.811c6.667-2.145 8.38-2.137 22.08.11 16.659 2.731 17.746 2.823 33.041 2.809 25.93-.025 42.479-4.97 54.67-16.338 3.003-2.801 2.668-3.012-2.774-1.737-18.769 4.397-40.592 5.074-60.209 1.868-5.942-.971-17.243-3.765-17.85-4.413-.464-.495-.38-.493 14.163.461 42.238 2.77 71.716-6.015 84.656-25.23 4.298-6.381 4.221-6.597-1.476-4.156-24.244 10.385-54.327 16.172-73.551 14.147-6.071-.639-5.696-.956 2.864-2.421 48.857-8.36 70.283-20.103 79.286-43.453 2.218-5.752 2.331-5.744-5.579-.439m-181.612 35.765c-3.847 4.2-11.072 21.732-15.592 37.836l-.639 2.277-3.241 1.049c-3.703 1.199-10.466 4.269-10.88 4.939-.153.247.829 2.342 2.182 4.656l2.459 4.207 28.205-.102 28.206-.103 2.156-3.73c1.186-2.052 2.156-4.037 2.156-4.413 0-.853-4.716-3.248-10-5.078l-3.8-1.315-.928-2.932c-5.929-18.726-9.916-28.762-13.912-35.018-2.687-4.208-4.129-4.722-6.372-2.273m-90.243 52.099c-7.046 1.09-1.043 11.542 19.507 33.967l2.664 2.907-1.058 4.366c-.959 3.956-1.372 7.62-.858 7.62.109 0 1.504-.666 3.1-1.479 1.595-.813 5.235-2.491 8.089-3.729 4.988-2.162 5.234-2.325 6.363-4.221.645-1.084 4.268-7.371 8.05-13.971 3.782-6.6 7.534-13.11 8.337-14.467 1.844-3.115 1.862-2.916-.66-7.378-2.771-4.902-3.161-4.889-9.343.309-2.478 2.084-2.121 2.071-9.559.366-14.36-3.29-29.207-5.13-34.632-4.29m131.894 3.412c-1.231 2.064-2.239 4.047-2.239 4.407 0 .56 7.393 13.689 16.45 29.212l2.55 4.371 5.2 2.261c2.86 1.243 6.32 2.831 7.689 3.529 3.351 1.708 3.819 1.676 3.484-.232-.603-3.439-1.351-6.79-1.748-7.835-.709-1.865-.549-2.177 3.075-5.998 15.281-16.11 24.205-29.399 21.535-32.069-2.719-2.718-20.969-.845-42.388 4.351l-2.352.57-1.648-1.509c-2.092-1.918-6.227-4.81-6.874-4.81-.273 0-1.503 1.688-2.734 3.752M76.4 181.271c0 6.086-6.751 23.42-12.234 31.41-16.927 24.668-17.445 58.634-1.291 84.678 16.18 26.088 41.643 37.581 89.125 40.229 18.206 1.015 31.504 6.383 44.415 17.927 3.879 3.469 3.168 3.444 6.792.238 13.249-11.717 29.006-18.1 44.793-18.146 1.65-.005 5.7-.28 9-.611 35.398-3.552 53.562-10.267 68.493-25.319 12.413-12.513 19.039-25.281 22.565-43.477.73-3.768.737-20.089.01-24.2-2.125-12.02-6.013-22.04-11.9-30.662-5.967-8.739-10.411-19.784-12.348-30.691l-.276-1.552-4.217.282c-5.527.37-5.416.315-5.11 2.572 1.387 10.23 6.688 23.888 12.958 33.39 20.336 30.82 14.559 68.963-13.975 92.27-12.936 10.567-32.971 16.258-64 18.18-20.251 1.254-31.78 5.122-46.094 15.465-3.358 2.426-2.66 2.542-8.234-1.371-13.068-9.176-24.522-12.856-43.872-14.098-27.444-1.761-46.627-6.379-58.467-14.077-32.542-21.154-41.472-62.843-20.427-95.358 5.035-7.78 7.638-13.113 10.322-21.15 2.016-6.035 3.712-14.419 3.049-15.065-.436-.426-9.077-1.248-9.077-.864m93.376 12.826a3791.513 3791.513 0 0 1-4.573 7.903c-8.294 14.291-8.03 13.396-3.603 12.193 19.596-5.326 56.1-5.325 76.52.002 4.127 1.077 4.345 1.815-3.487-11.795l-6.561-11.4-28.197-.103-28.196-.102-1.903 3.302m-76.188 2.238c-3.904 4.05-5.396 9.974-3.837 15.225.585 1.971.537 16.04-.055 16.04-.098 0-1.105-.837-2.237-1.861-3.736-3.376-11.41-6.176-12.087-4.41-1.907 4.969 6.27 15.329 12.995 16.465 2.159.365 2.169.387 3.41 7.337 1.191 6.678 1.154 7.116-.481 5.582-4.412-4.14-14.699-6.5-17.956-4.119-1.031.754.946 4.374 4.419 8.093 4.106 4.397 6.134 5.281 12.985 5.661l4.544.252 2.123 6.3c2.351 6.974 2.353 6.964-.975 4.692-4.831-3.297-11.925-4.352-17.755-2.64-3.807 1.118-3.491 2.665 1.585 7.76 5.817 5.837 12.432 7.776 20.112 5.893 3.547-.869 3.123-1.218 7.051 5.793 3.483 6.219 3.485 6.203-.513 4.225-5.943-2.938-12.146-3.262-18.441-.962-3.8 1.388-4.024 1.826-2.152 4.193 7.102 8.986 16.078 11.619 26.972 7.914 2.674-.91 2.759-.914 3.486-.187.993.993 5.969 7.278 9.595 12.119 2.851 3.805 3.727 4.437 4.744 3.42.783-.783.613-1.14-2.522-5.286-3.608-4.773-3.579-4.343-.498-7.492 6.57-6.713 8.272-16.988 4.247-25.642-1.288-2.77-2.089-2.606-5.904 1.209-4.699 4.699-6.269 8.296-7.069 16.196-.293 2.895-.242 2.934-4.569-3.541-4.27-6.39-4.162-5.754-1.305-7.703 6.949-4.741 9.7-9.915 9.7-18.243 0-7.322-.625-8.078-4.751-5.748-5.472 3.09-9.902 9.118-10.856 14.769-.62 3.678-.88 3.537-3.45-1.87-2.959-6.225-2.957-6.286.257-8.22 6.981-4.201 10.638-11.714 9.358-19.228-.359-2.113-.366-2.121-1.801-2.081-3.953.111-12.333 9-12.363 13.114-.025 3.494-.997 2.009-2.582-3.946-1.491-5.603-1.482-5.645 1.488-6.992 2.982-1.352 6.458-4.79 8.126-8.038 1.426-2.775 1.766-10.442.474-10.698-2.443-.484-9.418 5.038-11.35 8.986-.574 1.174-1.19 2.134-1.368 2.134-.457 0-.956-4.015-.97-7.8l-.012-3.2 2.951-1.465c5.973-2.966 9.254-7.706 9.576-13.834l.18-3.423-1.41.229c-3.31.537-8.122 3.823-10.166 6.942-.927 1.415-1.331 1.161-1.331-.836 0-1.559.237-2.053 1.858-3.879 4.147-4.669 5.318-11.561 2.859-16.834-1.33-2.851-1.888-2.898-4.329-.365m208.883-.435c-2.931 5.899-2.009 12.453 2.481 17.633 1.597 1.842 1.848 2.373 1.848 3.9 0 2.249.058 2.267-2.983-.957-2.829-2.998-5.545-4.695-8.193-5.119l-1.731-.276.178 3.359c.322 6.116 3.638 10.973 9.456 13.853l3.073 1.521-.021 3.593c-.042 7.261-.697 8.755-2.302 5.25-1.835-4.008-8.773-9.491-11.364-8.98-1.265.249-1.006 7.455.374 10.424 1.491 3.208 4.718 6.489 8.013 8.149 3.186 1.605 3.176 1.564 1.688 7.158-1.783 6.701-1.866 6.795-2.814 3.157-1.148-4.407-5.782-9.736-10.455-12.022-2.678-1.31-3.259-.937-3.576 2.294-.774 7.891 2.691 14.633 9.659 18.796 2.956 1.765 2.966 1.999.348 7.656-2.812 6.075-3.08 6.227-3.747 2.127-1.333-8.188-13.657-19.809-15.182-14.316-2.397 8.631 2.121 20.043 9.431 23.824 1.877.97 2.298 1.648 1.709 2.75-.755 1.411-5.412 8.373-6.486 9.695l-.95 1.169-.485-4.311c-.751-6.677-2.744-10.63-7.648-15.17-3.456-3.2-4.175-3.081-5.718.943-3.252 8.481-1.323 18.021 4.926 24.368 2.975 3.022 3.003 2.674-.6 7.445-3.13 4.144-3.308 4.519-2.52 5.307 1.05 1.05 1.92.357 5.55-4.42 4.589-6.04 7.92-10.25 8.822-11.152.645-.645.856-.629 3.723.282 11.18 3.55 19.77.931 27.038-8.246 1.57-1.983 1.281-2.508-2.065-3.748-6.72-2.491-12.27-2.301-18.448.634-4.416 2.098-4.412 2.106-1.447-3.114 4.193-7.383 4.261-7.471 5.479-7.193 11.342 2.587 21.433-1.188 25.812-9.655 2.947-5.698-13.301-5.958-20.68-.33-1.576 1.202-2.477 1.342-2.072.322.153-.385.816-2.23 1.474-4.1.658-1.87 1.565-4.435 2.014-5.7l.818-2.3h3.331c8.161 0 14.243-3.714 18.008-10.996 2.891-5.593-10.605-4.774-17.233 1.046-1.964 1.725-1.976 1.647-.776-5.3 1.193-6.905 1.215-6.955 3.28-7.298 6.809-1.13 15.055-11.48 13.135-16.485-.696-1.813-7.741.698-11.586 4.129-1.297 1.157-2.489 2.104-2.649 2.104-.653 0-.773-13.713-.138-15.938 1.509-5.298.127-10.955-3.725-15.239-2.196-2.442-3.065-2.553-4.074-.523M186 218.4l-7 .808c-17.853 2.057-37.418 7.977-54.235 16.411-8.28 4.152-8.381 4.654-2.877 14.301 4.437 7.779 4.534 7.807 12.757 3.717 40.874-20.331 88.153-20.402 129.627-.195 8.998 4.384 8.865 4.423 13.858-4.144 5.078-8.715 4.924-9.299-3.597-13.605-17.17-8.676-33.469-13.656-54.133-16.54-6.507-.909-28.841-1.397-34.4-.753m3.4 29.462c-16.175 1.29-33.207 5.401-45.1 10.887-4.023 1.856-4.044 1.908-2.203 5.395 4.594 8.697 18.002 17.711 32.249 21.68l3.995 1.113 2.178 2.667c9.852 12.059 29.243 11.905 38.84-.31l1.86-2.368 4.09-1.094c13.274-3.55 26.429-12.16 31.571-20.664 2.369-3.917 2.559-3.655-4.95-6.806-19.524-8.19-42.697-12.081-62.53-10.5m17.515 9.637c17.123 8.031 11.588 33.36-7.275 33.288-17.246-.066-23.746-22.144-9.421-32 4.549-3.13 11.609-3.675 16.696-1.288m-45.53 34.408c-.228.161-1.105 1.643-1.949 3.293-2.054 4.013-2.36 4.275-5.836 4.985-4.809.982-4.8.979-4.8 1.791 0 .419 1.17 2.036 2.6 3.594 2.906 3.167 3.018 3.633 2.208 9.23-.564 3.893-.24 4.018 4.498 1.733l3.875-1.869 3.693 1.823c5.156 2.546 5.268 2.39 4.098-5.731l-.265-1.845 2.913-3.306c3.602-4.088 3.537-4.297-1.655-5.314-4.424-.867-4.01-.544-6.329-4.942-1.841-3.493-2.28-3.988-3.051-3.442m75.91.193c-.221.275-1.033 1.76-1.805 3.3-1.867 3.729-2.394 4.128-6.515 4.94-4.886.961-4.974 1.247-1.566 5.056 3.07 3.43 3.021 3.243 2.414 9.248-.42 4.144-.355 4.172 4.377 1.885l3.873-1.873 3.842 1.908c3.947 1.961 5.463 1.92 4.678-.126-.123-.321-.332-2.233-.465-4.248l-.24-3.664 2.656-2.895c3.646-3.973 3.548-4.421-1.144-5.194-4.407-.726-4.836-.998-6.275-3.985-2.169-4.499-2.974-5.414-3.83-4.352m-37.999 10.787c-.234.282-1.273 2.197-2.311 4.254-2.138 4.242-2.425 4.447-7.385 5.261-5.428.89-5.5 1.203-1.346 5.871l3.053 3.432-.24 3.048a176.203 176.203 0 0 1-.503 5.285c-.37 3.153.167 3.23 5.058.731 4.506-2.302 4.073-2.316 9.332.315 4.765 2.384 4.907 2.256 4.144-3.725-.681-5.339-.61-5.57 2.907-9.424 3.945-4.325 3.904-4.449-1.842-5.562-4.942-.957-4.825-.868-7.363-5.61-2.252-4.208-2.763-4.773-3.504-3.876" fill="#ba0b3c"/></g></svg>