<svg xmlns="http://www.w3.org/2000/svg" viewBox="0 0 24 24" xmlns:v="https://vecta.io/nano"><path d="M9.584 21.706v-6.65H7.522V12h2.062v-1.317c0-3.404 1.54-4.982 4.882-4.982.334 0 .796.035 1.223.086a7.5 7.5 0 0 1 .951.162v2.771a7.5 7.5 0 0 0-.544-.03 22.5 22.5 0 0 0-.611-.008c-.589 0-1.049.08-1.396.258a1.417 1.417 0 0 0-.566.518c-.215.35-.312.829-.312 1.46V12h3.266l-.322 1.752-.239 1.303h-2.705v6.871C18.163 21.328 22 17.113 22 12c0-5.522-4.478-10-10-10S2 6.478 2 12c0 4.69 3.228 8.625 7.584 9.706" fill="#fff"/></svg>