<svg version="1.1" xmlns="http://www.w3.org/2000/svg" xmlns:xlink="http://www.w3.org/1999/xlink" width="225.73024" height="349.62174" viewBox="0,0,225.73024,349.62174"><g transform="translate(-127.14765,-5.03497)"><g data-paper-data="{&quot;isPaintingLayer&quot;:true}" fill="none" fill-rule="nonzero" stroke-linecap="butt" stroke-linejoin="miter" stroke-dasharray="" stroke-dashoffset="0" style="mix-blend-mode: normal"><g stroke="none" stroke-width="1" stroke-miterlimit="10" font-family="sans-serif" font-weight="normal" font-size="12" text-anchor="start"/><g stroke="#bc0839" stroke-width="1.5" stroke-miterlimit="4"><path d="M206.22172,148.73534c0,0 2.85927,0.88809 3.19392,2.12928c0.66451,2.46446 3.51562,2.85606 3.34601,3.65019c-0.19808,0.92805 -3.39633,1.76402 -3.95438,1.97719c-1.19938,0.45839 -2.25667,1.35498 -2.73764,1.74905c0.34497,0.61413 0.2388,0.62435 0.8365,1.29278c-2.66912,-0.10289 -3.59877,1.18434 -4.17769,2.82432c-0.5789,1.63998 -0.87393,2.31335 -1.22143,2.95503c-0.81672,0.49273 -1.42783,0.92255 -1.44487,1.36882c-0.00706,0.16913 -0.0769,0.28472 -0.07592,0.45627c-0.15136,0.32377 -0.48925,0.2717 -0.68441,0.38023c-0.74011,-0.54865 -0.92267,-0.5899 -1.90114,-0.15209c-0.70604,-0.11267 -1.36748,-0.22291 -2.05323,-0.30418c-0.37952,-0.35645 -0.5786,-0.35005 -0.91255,-0.07592c-0.68979,-0.0146 -1.20043,0.12459 -1.06464,0.53232c0.02871,0.17399 0.12532,0.30053 0.22802,0.45627c-0.22631,0.51424 -0.17472,1.06829 0.53232,1.36882c0.90741,0.38563 1.19405,0.89065 1.90114,0.91255c0.70697,0.0219 0.37743,0.52052 0.22802,0.60837c-0.0073,0.02798 -0.56456,0.21585 -0.60837,0.22802c-0.50655,0.21706 -1.193,0.53682 -1.673,0.98859c-0.26513,0.24992 -0.69103,0.29275 -1.14069,0.22802c-0.42496,0.03845 -0.82416,-0.33314 -1.14069,-0.45627c-0.24189,-0.43007 -0.73276,-0.64075 -1.21673,-0.07592c-0.28642,0.37225 -0.52125,0.78207 -0.76046,1.14069c0,0 -0.97908,-0.00973 -1.52091,0c-0.29703,0.07033 -1.20164,0.31976 -1.06464,0.45627c0.137,0.13652 0.46895,0.34538 0.91255,0.8365c1.06452,1.17872 0.30418,1.97719 0.8365,2.50951c0.53232,0.53232 2.35742,2.50951 2.35742,2.50951c-0.09393,0.85716 -0.22583,1.50575 -0.22802,2.35742l0.60837,0.53232c1.3826,0.60289 2.25772,0.57035 2.88974,2.12928c0.10756,0.75282 0.55841,1.05539 0.98859,1.21673c1.33728,0.2221 2.45334,0.34502 3.4981,1.14056c0.8066,0.16134 1.40413,-0.15598 1.673,-0.53232c0.10357,-0.37295 0.2397,-0.89955 0.38011,-1.36882c0.52332,-0.11187 1.16025,-0.6536 1.90114,-0.38011c0.47275,-0.01703 0.50633,-1.07688 0.07592,-1.74905c-0.43019,-0.67215 -0.7168,-0.69283 -0.15209,-0.98859c0.56456,-0.29574 0.09758,-0.89953 0.60837,-0.68441c0.51086,0.21512 0.96935,-0.45087 1.74905,-0.98859c0.58479,-0.4033 0.55841,-0.72395 0.91255,-0.76046c0.24865,0.02482 0.50713,0.08809 0.76034,0.07592c0.10788,0.1079 0.40164,0.19541 0.45615,0.45627c0.86495,1.39778 0.41914,5.02043 1.29278,6.76807c0.6766,0.33959 1.45701,0.80961 2.28101,1.21673c0.18884,0.19606 0.28496,0.43705 0.22802,0.8365c-0.39936,0.99864 -1.66921,2.70859 -1.21673,3.26996c0.06473,0.0803 0.16158,0.12362 0.30418,0.15209c0.84497,-0.21797 1.39832,-0.46467 1.97719,-0.53232c0.54843,-0.07675 1.07165,0.01988 1.8251,0.38023c0.28851,0.13786 0.61296,0.25125 0.91255,0.38023c0.37412,-0.745 -0.2156,-1.81784 1.673,-0.68441l0.30418,0.45627c0.45644,1.14129 2.50982,2.28091 1.59696,3.19392c-0.91289,1.36943 -3.64973,0.22763 -5.01901,1.14069c-0.68465,0.68478 1.8251,1.14017 1.8251,2.05323c0.22823,1.82607 -0.98859,4.33363 -0.98859,6.1597c0.22823,1.59781 2.35742,2.35659 2.35742,3.95438c0,1.14132 -1.90114,1.36809 -1.90114,2.73764c-0.22819,0.91306 1.21688,1.74854 0.76046,2.6616c-0.68463,0.91355 -2.50936,-1.14105 -2.96578,-0.22802c-0.68465,0.91306 1.14056,1.82451 1.36882,2.96578v2.05323c0.22855,2.96739 0.68485,4.10486 -0.22802,7.07225c-6.12159,8.91092 -3.62304,10.31946 -10.11408,16.42587c-0.85045,0.69376 -1.52079,-0.83711 -1.74905,0.07592c-0.45642,1.59784 2.14863,3.33134 1.36882,5.3232c0,0.22826 -1.8251,-0.07592 -1.8251,-0.30418c-0.68465,-1.59779 -1.13991,0.45679 -3.42206,-0.45627c-0.91289,-0.22826 -0.91221,-1.59684 -1.8251,-1.8251c-1.59752,-0.45654 -6.61558,2.05396 -7.75666,0.68441c-0.22823,-0.45654 0.91255,-0.45606 0.91255,-0.91255c0.22823,-0.68478 -1.59672,0.68453 -2.28137,0.45627c-3.4232,-0.22802 -4.25744,-1.21724 -7.45248,-0.07592c-0.45644,0.22823 0.53232,0.30382 0.53232,0.98859c-0.22821,1.14129 -4.10647,2.6616 -4.10647,2.6616c-0.91286,0 -0.68414,-0.91267 -1.59696,-0.68441c-1.59754,0.68478 -3.49764,2.20481 -4.86692,3.11787c-4.79253,2.51087 -2.70139,-4.94611 -5.85552,-4.18251c-0.89654,0.46469 1.23338,3.17396 0.30418,4.86692c-0.68465,0.91306 -1.90073,-0.07641 -3.04183,0.60837c-0.68463,0.45652 -1.14037,1.82497 -2.05323,2.05323c-0.45627,0 -0.1519,-0.30406 -0.60837,-0.53232c-0.45642,-0.45654 -1.0644,-0.98872 -1.74905,-0.76046c-0.45644,0.45652 -0.15187,1.29265 -0.8365,1.52091c-2.28217,0.22826 -6.23528,-1.14081 -7.60457,-0.91255c-1.82578,0.22826 -3.34545,0.22802 -4.94297,0.45627c-4.56432,0.45652 2.51077,-3.19428 -1.14069,-2.50951c-1.36928,0.45652 -6.84394,2.28161 -7.30039,1.8251c-0.91289,-1.36955 6.88957,-4.78146 8.66921,-7.07225c0.22821,-0.4564 -0.68424,-0.45615 -1.14069,-0.68441c-1.88294,1.35617 -5.98332,2.83065 -13.23195,1.673c-0.22821,0 1.29175,-0.98808 4.25856,-1.90114c0.45644,0 1.21673,-1.14047 1.21673,-1.59696c0,-0.22826 -0.68453,-0.45615 -0.45627,-0.68441c2.05394,-1.82609 1.13976,1.14127 3.87833,0c1.36931,-0.45652 5.24747,-0.68378 4.3346,-1.8251c-0.22821,-0.22826 -10.49416,1.14069 -10.95058,1.14069c-2.05396,-0.45654 -3.65031,-3.64895 -3.42206,-5.93156c0.22821,-0.91306 2.05299,0.91277 2.73764,0.45627c0.68465,-0.45654 -0.45627,-1.14032 -0.45627,-1.8251c0.45642,-2.05433 4.10574,-0.91233 6.1597,-1.36882c1.59749,-0.22826 3.6498,0.00061 4.79088,-1.14069c0.91289,-0.68478 -2.28098,-2.28174 -3.42206,-1.59696c-0.22826,0.45652 0.45644,1.3687 0,1.59696c-0.22821,0.22826 -8.44061,-0.68344 -9.80989,-2.50951c-0.22821,-0.45654 2.7375,-1.82497 3.19392,-2.05323c0.45647,-0.22826 -0.00019,-1.21661 0.45627,-1.44487c1.14107,-0.68429 4.33409,-0.45627 5.93156,-0.22802c2.05396,0 3.42142,2.12877 5.24715,3.04183c1.8257,0.91306 -3.42235,-3.72526 -2.50951,-5.55133c0.68468,-1.59784 3.42152,-0.45591 5.01901,-1.14069c0.91289,-0.45652 0.91223,-1.82497 1.8251,-2.05323c0.09284,0 3.30481,0.48114 6.31179,0.91255c0.35516,-0.42269 0.98876,-0.98859 0.53232,-1.14069c-0.68463,-0.22826 -1.59662,0.68453 -2.50951,0.45627c-0.91289,-0.22826 -1.59679,-0.91218 -2.05323,-1.59696c-0.22826,-0.45652 0.22826,-0.91243 0,-1.14069c0,0 -6.61563,1.36909 -7.52852,0.91255c0.21728,-0.07203 1.72508,-0.04259 2.28137,-0.22802c1.8257,-0.91306 3.19331,-2.05287 5.01901,-2.73764c0.45644,-0.45654 1.36865,0.22826 1.8251,0c0.91289,-0.91306 1.1403,-2.5089 2.28137,-3.65019c0.45644,-0.45654 1.14047,-0.68429 1.8251,-0.91255c0.45644,-0.4564 -1.59679,0.00037 -2.05323,-0.68441c-0.91286,-1.14129 2.05294,-2.05272 2.96578,-2.96578c0.68465,-0.91306 1.1403,-2.05311 2.28137,-2.28137c0.68465,-0.22823 0.91233,1.59708 1.59696,1.36882c1.82573,0 3.64963,-0.68395 5.24715,-1.59696c-0.28737,-0.03672 -1.8251,0.10865 -1.8251,-0.45627c0,-0.68478 1.59696,-0.45591 1.59696,-1.14069c-0.22821,-0.68478 -5.90421,0.6747 -10.6464,-1.14069c-3.68942,-0.73909 0.20655,-2.79366 -0.30418,-5.01901c-0.0713,-0.2568 -2.48488,0.79148 -3.65019,1.52091c-1.19775,0.7497 -1.97171,-1.11964 -2.20532,-1.21673c-0.80224,-0.33355 2.29977,-1.31901 2.58555,-1.8251c0.61109,-1.08194 -1.98225,0.20879 -2.96578,0.15209c-1.96711,-0.11364 -2.20501,-1.13996 -3.11787,-2.50951c-1.08094,-4.09758 4.33448,-3.87833 4.56274,-3.87833c0.22821,-0.22826 -0.91267,-0.91243 -0.68441,-1.14069c0.91286,-1.59781 2.05258,-3.19365 3.87833,-3.65019c1.59749,-0.45652 2.12865,1.06464 3.95438,1.06464c0.45644,0 0.91243,-1.14047 1.14069,-1.59696c-0.50025,-4.63292 -5.09491,-0.60725 -5.55133,-2.6616c-0.61401,-1.46472 1.96047,-1.16806 3.11787,-1.06464c0.97531,-0.99185 -1.44475,-2.88961 -1.673,-3.11787c0,-0.79891 2.36085,-2.35024 1.59696,-2.28137c-1.23476,0.11116 -4.41924,2.09857 -0.38023,-3.11787c-0.91284,-0.91303 -2.73733,2.89025 -3.65019,1.97719c-0.91286,-0.91306 1.52074,-2.28076 1.97719,-3.42206c0.22821,-0.91316 -1.4456,-0.83626 0.60837,-1.29278c2.05396,-0.45652 12.77529,-0.45783 13.91636,2.50951c0.68465,1.59784 -0.2286,4.10625 1.14069,4.56274c1.36928,0.45652 1.36843,-2.28101 2.50951,-2.96578c2.05396,-1.14129 7.98467,5.70379 8.21293,5.01901c0.68465,-1.59784 -1.59708,-3.42106 -1.36882,-5.24715c0.45644,-2.05433 7.37643,-1.3687 7.37643,-1.59696c1.82573,-0.68475 3.19353,-2.0525 4.3346,-3.42206c0.68463,-0.91306 -3.42206,0.00027 -3.42206,-0.45627c-0.68465,-2.51085 0.00102,0.91267 -2.96578,0.68441c0.00973,-0.09055 0.30671,-1.37449 0,-2.05323c-0.91286,-0.45649 -5.55158,-0.68293 -4.86692,-3.42206c1.36928,-4.56522 6.00715,0.45652 7.37643,0c0.91289,-0.45652 -3.11812,-1.82461 -2.43346,-2.73764c0.91282,-0.91313 2.58519,0.38035 3.72624,0.15209c1.1411,-0.22826 -0.83621,-1.97682 -1.52091,-2.6616c-0.45642,-0.45652 1.3687,0.07641 1.59696,-0.60837c0.04611,-2.46184 -8.21709,0.15501 3.65019,-5.3232c0.68463,-0.22826 1.59664,0.45615 2.50951,0.68441c3.58899,0.04611 5.24618,-3.27094 7.9848,-1.44487c0.79827,0.57065 -0.94562,1.2326 0.07592,2.50951c0.54816,0.68524 0.43953,2.0875 -0.53232,3.42206c-0.9718,1.33456 -2.81369,2.58555 -2.81369,2.58555c0,0 3.3456,-0.45567 4.4867,-1.59696c0.22826,-0.22826 0.28715,-0.78954 0.45627,-1.29278c0.76562,-2.27872 -0.94954,-3.47406 0.15209,-5.17111c1.02008,-1.57136 2.85676,-0.65261 2.96578,-1.14069c0.27595,-1.23608 0.22802,-2.05323 0.22802,-2.05323zM154.66177,222.0435c3.94617,0.52757 8.00721,0.92155 8.8213,0.45627c1.14107,-0.68475 -2.96554,-0.45564 -3.65019,-1.59696c-0.22821,-0.68478 0.68453,-1.82473 0.45627,-2.50951c-0.02336,-0.04697 -0.04575,-0.04989 -0.15209,0c-0.7451,0.34915 -3.39911,2.81496 -5.47529,3.65019z"/><g><g><path d="M225.01329,156.95512c-1.12927,-0.04704 -0.62976,-0.41566 -0.26673,-0.49791c0.36302,-0.08225 0.57953,-0.06814 0.71386,-0.04113c1.34429,0.21512 1.19064,0.41016 0.76046,1.21673c-0.43011,0.8066 -0.53232,0.37641 -0.53232,0c0,-0.37641 0.45404,-0.63073 -0.67526,-0.67769zM213.06497,156.79644c1.24182,-0.22157 2.60414,1.34047 3.80228,1.14069c1.59752,0 2.73718,-1.14081 4.10647,-0.91255c1.59749,0.22826 2.50902,1.82488 3.87833,2.28137c0.68463,0.45603 2.05311,-0.45676 2.28137,0.22802c0.81606,1.42929 1.22902,3.38733 0.98859,5.09506c0.11705,0.08931 0.21828,0.17132 0.22802,0.30418c0.05697,0.79737 -0.91255,1.74905 -0.91255,1.74905c0,0 1.25494,1.3513 1.36882,2.43346c0.11391,1.08216 0.98859,2.12928 0.98859,2.12928c0,0 0.38108,-0.41814 0.83614,0.15185c0.45567,0.56955 0.58926,0.68628 0.53232,2.05323c-0.05697,1.36695 -0.36363,1.36945 -2.12928,1.8251c-0.80282,0.20718 -1.35622,0.53088 -1.74905,0.8365c-0.1919,0.44768 -0.27887,0.48866 -0.45627,0.8365l0.68441,0.45627c0,0 1.54062,-0.98823 2.05323,-0.76046c0.51258,0.22777 0.93258,0.53195 1.673,0.30418c0.42021,-0.12929 0.6484,0.02494 0.8365,0.30418c1.11414,0.54787 1.7444,2.24122 1.44487,6.23575c-0.25498,2.48649 -0.93486,3.84197 -1.8251,4.63879c-0.16667,-1.04162 -0.47122,-1.62682 -0.91255,-2.50951c-0.56383,-1.12767 0.50531,-1.1357 0.98859,-2.58555c0.48329,-1.44986 -0.53183,-2.61658 -1.90114,-3.42206l-0.68441,0.8365c0,0 0.91255,0.42878 0.91255,2.28137c0,1.85259 -1.44487,2.88974 -1.44487,2.88974c0,0 0.08152,0.06619 0.30418,0.07592c0.52371,-0.0275 0.93657,-0.1611 1.44487,-0.07592c0.10464,0.03626 0.13189,0.11267 0.22802,0.30418c0.09612,0.19161 0.23069,0.51018 0.30418,0.98859c0.13433,0.87315 -0.45786,1.35833 -1.36882,2.12928c-1.08576,1.20006 -1.49957,0.58955 -2.35742,0c-1.1738,-0.05018 -2.23788,-0.03954 -2.81369,0.60837c-0.11754,0.11778 -0.19224,0.27187 -0.22802,0.91255c-0.03584,0.64071 -0.29676,0.99361 -0.53232,1.59696c-0.17862,0.42277 -0.67877,0.6813 -1.36882,1.06464c-0.98124,0.54514 -0.73877,0.40619 -2.05323,0.98859c-0.34173,-0.07325 -0.71962,0.06488 -1.06464,-0.22802c0.0155,-0.22388 0.06327,-0.40566 0.30418,-0.45627c0.72262,-0.15209 0.19025,-0.38035 -0.22802,-0.60837c-0.41824,-0.22814 -1.14056,0.15209 -1.06464,-0.68441c0.07605,-0.8365 -0.30418,-0.76058 -1.36882,-0.8365c-0.07909,0.03942 -0.01119,0.00365 -0.15209,0.07592c-1.88861,-1.13343 -1.29888,-0.06052 -1.673,0.68441c-0.29958,-0.129 -0.62404,-0.24225 -0.91255,-0.38023c-1.5322,-0.73279 -2.17992,-0.26639 -3.80228,0.15209c-1.1411,-0.22826 0.45613,-2.28074 0.91255,-3.42206c0.22821,-1.59784 -2.05309,-1.14017 -2.50951,-2.05323c-0.99845,-1.99729 -0.27026,-6.45116 -1.74905,-7.22434c-0.26075,-0.02604 -0.46698,-0.04283 -0.76034,-0.07592c-0.35414,0.03655 -0.32776,0.35716 -0.91255,0.76046c-0.77971,0.53772 -1.23819,1.20371 -1.74905,0.98859c-0.51078,-0.21509 -0.04375,0.38867 -0.60837,0.68441c-0.56471,0.29576 -0.2781,0.31645 0.15209,0.98859c0.43053,0.67217 0.39695,1.73202 -0.07592,1.74905c-0.56503,0.06278 -1.38824,-0.16494 -1.90114,0.38011c-0.13907,0.50039 -0.11557,0.87529 -0.38023,1.36882c-0.26887,0.37633 -0.86641,0.69366 -1.673,0.53232c-1.10851,-0.56583 -2.09575,-1.1284 -3.4981,-1.14056c-0.43019,-0.16134 -0.88103,-0.46392 -0.98859,-1.21673c-0.76659,-1.08399 -1.29913,-1.96088 -2.88974,-2.12928l-0.60837,-0.53232c0.04697,-0.92968 0.03796,-1.57506 0.22802,-2.35742c0,0 -1.8251,-1.97719 -2.35742,-2.50951c-0.53232,-0.53232 0.22814,-1.33079 -0.8365,-2.50951c-0.4436,-0.49112 -0.77554,-0.69999 -0.91255,-0.8365c-0.13693,-0.13649 0.76761,-0.38595 1.06464,-0.45627c0.54183,-0.00973 1.52091,0 1.52091,0c0.23909,-0.35862 0.47404,-0.76844 0.76046,-1.14069c0.48397,-0.56495 0.97484,-0.35426 1.21673,0.07592c0.31652,0.12311 0.71573,0.49472 1.14069,0.45627c0.44966,0.06488 0.87556,0.02149 1.14069,-0.22802c0.48,-0.45177 1.16646,-0.77153 1.673,-0.98859c0.04392,-0.01095 0.60107,-0.20003 0.60837,-0.22802c0.14949,-0.08785 0.47908,-0.58646 -0.22802,-0.60837c-0.70709,-0.0212 -0.99373,-0.52692 -1.90114,-0.91255c-0.70704,-0.30053 -0.75863,-0.85458 -0.53232,-1.36882c-0.10269,-0.15564 -0.19906,-0.28228 -0.22802,-0.45627c-0.13591,-0.40773 0.37485,-0.54692 1.06464,-0.53232c0.33394,-0.27425 0.53303,-0.28065 0.91255,0.07592c0.68575,0.08128 1.34719,0.19151 2.05323,0.30418c0.97847,-0.4378 1.16103,-0.39656 1.90114,0.15209c0.19511,-0.10841 0.53305,-0.05653 0.68441,-0.38023c-0.00122,-0.17156 0.06862,-0.28715 0.07592,-0.45627c0.01786,-0.44627 0.62815,-0.87609 1.44487,-1.36882c1.38999,-2.56672 1.55763,-5.77947 5.3232,-5.77947c0.68465,0.91316 1.59664,1.59723 2.50951,1.14069c1.36931,-0.68478 1.82463,-2.96542 3.19392,-3.65019c0.17117,-0.11389 0.35492,-0.19638 0.53232,-0.22802z"/><path d="M345.51921,5.81835c0.76002,-0.16978 1.90078,0.34251 1.90078,0.76046c0,0.55726 -1.72375,3.99501 -2.28093,4.10646c-0.55718,0.11145 -1.10565,-0.28851 -2.05284,0.38023c-0.94716,0.66871 -1.17587,0.75583 -1.06443,1.36882c0.11143,0.61301 0.84087,0.48762 0.22797,1.82509c-0.61287,1.33748 -0.76615,2.11884 -1.82475,1.673c-1.05862,-0.44583 -0.90191,-1.4263 -0.45619,-3.87832c0.44575,-1.44973 0.56295,-0.99903 1.06443,-1.44487c0.50132,-0.44583 0.25364,-1.21731 0.53222,-2.05323c0.2786,-0.83592 1.67268,-0.48645 1.67268,-0.15209c0,0.33436 -0.34943,1.98183 0.15206,1.36882c0.50146,-0.61301 1.09519,-2.55073 1.59665,-3.4981c0.12537,-0.23678 0.27889,-0.39957 0.53222,-0.45627zM337.38389,11.14154c1.0029,0 0.91702,0.52361 0.30412,2.58555c-0.61287,2.06194 -0.58735,3.43658 0.30412,2.43346c0.89147,-1.0031 1.38887,-0.8812 1.44459,0.45627c0.05572,1.33748 0.13759,1.97719 1.14047,1.97719c1.0029,0 0.26293,1.27883 -0.68428,3.11787c-0.94719,1.83909 -1.26757,0.34076 -1.82475,1.90114c-0.55827,1.56038 0.85595,1.60798 0.07591,2.88973c-0.78004,1.28175 -1.16137,3.45342 -2.05284,4.79087c-0.89147,1.33748 -0.69591,3.37562 -2.81315,2.20532c-0.50146,-0.78019 0.20316,-0.67514 0.76031,-1.90114c0.55718,-1.22603 0.76613,-2.14147 1.82475,-5.09505c1.05862,-2.95359 -0.47188,-3.29955 -1.14047,-2.12928c-0.66859,1.1703 -0.68951,0.51665 -0.91237,-0.15209c-0.22286,-0.66874 -0.03598,-1.85004 -0.76031,-1.29277c-0.72433,0.55729 -1.46549,0.21247 -2.35696,-0.45627c-0.89147,-0.66874 -0.67326,-1.98762 0.60825,-2.43346c1.28151,-0.44581 2.97623,0.82606 4.25774,0.38023c1.28151,-0.44583 0.52699,-2.09329 0.30412,-1.36882c-0.22286,0.72446 -0.5682,0.69427 -1.29253,0.30418c-0.72433,-0.39011 0.4057,-1.28871 0.68428,-2.73764c0.27967,-1.44888 0.10632,-1.7589 -0.22797,-1.36882c-0.33432,0.39011 -0.59837,1.1146 -0.9884,0c-0.39113,-1.11455 -0.81559,-0.8934 0.07591,-2.5095c0.89147,-1.61611 0.72549,0.58284 1.67268,0.30418c0.94719,-0.27863 0.59375,-1.90114 1.59665,-1.90114zM304.31025,45.74216c0.2159,-0.06269 0.52236,0.06619 0.91237,0.45627c0.78004,0.78019 1.48522,1.63816 1.59665,2.58555c0.11143,0.94859 -0.87174,0.71938 -0.76031,-0.22802c0.11146,-0.94737 -0.49738,-1.16563 -1.44459,-0.60836c-0.94716,0.55729 -1.0946,-0.25948 -0.76031,-1.59696c0.08357,-0.30649 0.24038,-0.54558 0.45619,-0.60836zM311.53319,49.01224c0.16715,0.61301 1.26175,-0.14163 0.76031,0.30418c-0.50146,0.44583 -0.04177,1.161 -1.82475,1.21673c-0.11143,-0.44654 0.18226,-0.23337 -0.15206,-0.45627c-0.33429,-0.2229 0.00465,0.3959 -0.60825,1.06464c-0.6129,0.66874 -1.13524,0.19215 -0.91237,-0.53232c0.22286,-0.72446 0.64423,-0.69487 1.36856,-1.14068c0.7243,-0.44581 0.66396,-0.21828 0.60825,-0.60836c-0.05572,-0.39011 -0.40976,-0.87714 0.76031,-0.98859c1.17005,-0.11145 -0.16715,0.52767 0,1.14068zM303.47391,50.53315c0.44572,0.66871 1.13582,0.05108 1.74871,0.60836c0.61287,0.55726 -0.0917,1.28289 -0.76031,1.673c-0.66861,0.39008 -1.12073,-0.13756 -1.90078,-1.14068c-0.39001,-0.72446 -0.50655,-0.79645 -0.22797,-1.52091c0.06958,-0.18105 0.14525,-0.25454 0.22797,-0.30418c0.24812,-0.1489 0.57806,0.18285 0.91237,0.68441zM300.12854,50.76129c0.94719,0.11145 0.82649,0.20317 1.2165,0.76046c2.17298,1.83904 2.5845,3.1434 1.74871,3.42205c-0.83576,0.27863 -1.90078,0.91255 -1.90078,0.91255c0,0 1.19153,-0.12131 1.74871,0.38023c0.55718,0.50034 1.01918,-0.32925 1.52062,0.22802c0.50146,0.55729 -0.86654,0.7506 -0.53222,1.14068c0.33429,0.39132 2.05284,-0.22802 2.05284,-0.22802c0,0 -1.41384,0.96363 -0.91237,1.52091c0.50146,0.55729 1.96695,-1.40888 2.35696,-0.68441c0.39003,0.72446 -1.15613,1.21208 -1.82475,1.82509c-0.66861,0.61299 -1.66804,0.92184 -2.28093,-0.30418c-0.61287,-1.226 -0.17758,-1.5871 -0.45619,-1.97719c-0.27858,-0.39011 -1.26817,0.68441 -2.66109,0.68441c-1.39294,0 -2.25015,-0.62406 -1.74871,-1.29277c0.50146,-0.66874 -0.39059,-0.20782 -0.83634,-0.15209c-0.4456,0.05573 -1.38308,-0.1846 -0.38016,-3.19391c0.75218,-2.25698 1.49189,-2.90068 2.2049,-3.04182c0.23768,-0.04697 0.44755,-0.02774 0.68428,0zM295.87068,57.52934c0.60854,-0.13323 1.34243,0.31231 2.05284,1.06464c0.94729,1.0031 0.52757,2.17573 1.14047,3.34601c0.6129,1.1703 0.02438,0.8365 -1.36856,0.8365c-1.39294,0 -1.53108,-0.65017 -1.97681,-2.43346c0,-0.72446 0.86595,-1.02923 -0.30412,-1.14068c-1.16883,-0.11145 -0.7445,-0.56831 -0.07591,-1.29277c0.16715,-0.18117 0.32931,-0.33594 0.53222,-0.38023zM248.50321,60.79918c1.14105,0.22826 -0.07625,3.19331 0.38016,4.3346c-1.14105,1.82609 -4.33353,3.64946 -4.78996,5.01901c-0.22821,1.14129 0.13642,6.52955 -3.4214,7.90874c-1.16414,0.48107 -2.35633,0.53293 -3.49743,-0.60836c-1.36749,-0.91306 1.29338,1.90073 -0.07591,2.58555c-0.68469,0.22826 -1.29226,-1.97743 -1.74871,-1.52091c-0.79715,0.45654 0.37901,1.3082 -0.07591,2.05323c-0.45492,0.745 -2.34144,3.01238 -3.4214,2.5095c-1.04246,-0.4854 -3.2698,-3.80155 -2.35696,-5.1711c0.91288,-1.59783 4.78959,1.14168 5.47424,-0.68441c0.01487,-0.53388 -3.19294,-1.8241 -3.87758,-3.65019c-0.22821,-0.68478 1.59641,-0.45601 2.05284,-0.91255c0.22821,-0.22568 -0.68428,0.00024 -0.68428,-0.22802c-0.45619,-0.91306 -0.6844,-1.82463 -0.45619,-2.73764c1.50237,-4.1698 2.88748,-1.82546 6.08249,-1.14068c0.22821,0 -0.53258,-2.05287 0.15206,-2.73764c1.13961,-0.37478 1.97557,-0.98847 4.25774,-1.21673c0.22821,-0.22826 1.14034,-0.53232 1.36856,-0.53232c1.19813,-0.99864 1.23404,-1.53685 2.58506,-1.74905c0.19301,-0.03042 1.85309,-1.54938 2.05284,-1.52091zM303.47391,62.47231c-0.7243,0.78019 -0.64888,1.27302 -0.76031,2.05323c-0.11143,0.78019 -0.28439,0.69427 -1.06443,0.30418c-0.78004,-0.39011 0.23797,-1.15638 -0.15206,-1.82509c-0.50144,-0.83594 -0.00465,-1.29277 0.60825,-1.29277c0.6129,0 0.42137,-0.53232 1.36856,-0.53232c0.94719,0 0.72433,0.51258 0,1.29277zM268.72771,62.09232c0.26456,-0.08193 0.95991,0.82859 2.05284,1.06464c1.20934,0.26104 2.24889,1.66023 2.96521,1.97719c0.91894,0.40675 1.15976,-1.09418 2.73712,0.38023c0.50314,0.47031 0.37281,1.60224 -0.30412,3.11787c0,0 1.67217,-1.52079 2.58506,-1.74905c2.42078,-0.4564 2.2641,-0.81647 5.01805,-0.53232c1.37695,0.14207 0.33724,0.61199 2.35696,0.98859c1.00986,0.18833 2.43611,-1.09576 4.25774,-0.53232c1.59794,0.49426 3.4077,1.39303 3.95362,1.59696c0.91298,0.1141 0.22138,-1.46365 1.14047,-1.74905c0.91906,-0.28537 3.48539,0.72091 4.4098,0.68441c1.4208,-0.05624 -2.09079,3.26563 -2.58506,4.71483c-0.30943,0.90722 2.27972,0.42004 0.45619,3.57414c-0.83573,1.44557 -3.97177,2.20863 -5.01805,2.58555c-3.15557,1.13677 -4.50177,3.97206 -5.70233,4.41064c-3.43278,1.25406 -2.88018,1.80696 -5.47424,3.11787c-3.20596,1.6201 -1.59687,2.77667 -2.35696,3.42205c-1.0474,0.74724 -1.39131,-0.69173 -2.35696,0.45627c-0.11236,2.00524 3.44293,0.50847 6.8428,0.38023c1.01991,-0.03845 -1.21599,0.76009 -2.12887,1.44487c-0.68464,0.68478 -2.05225,2.73752 -3.1933,2.96578c-0.45572,0 0.45645,-1.14068 0,-1.14068c-0.91288,-0.22826 -1.67232,0.38011 -2.35696,0.60836c-1.5975,0.68478 -2.20454,-1.44572 -2.88918,0.15209c-0.85714,0.82832 -1.86781,2.19863 -0.53222,1.59696c0.20831,-0.09386 1.18896,-0.81728 2.50903,-0.98859c0.66056,-0.08566 0.03087,0.38655 0.60825,0.53232c0.5774,0.14479 2.32375,-0.01905 2.28093,0.22802c-0.17123,0.9882 -5.66734,4.02908 -5.17011,4.3346c0.99446,0.61107 4.12453,-1.25457 4.4098,-1.59696c0.17114,-0.34241 -0.71411,-0.64073 -0.9884,-0.76046c1.1411,-0.22826 1.74798,0.45627 3.11727,0.45627c2.51039,-0.22826 6.30885,-2.96614 9.50388,-2.28137c0.79875,0.11413 0.63815,0.78878 2.58506,1.97719c2.35071,1.43355 3.38296,-0.00024 4.18171,0.22802c1.93985,0.57067 3.41237,1.17074 6.53867,1.673c3.12632,0.50224 7.20006,-0.14752 8.89563,3.19391c0.73503,1.36955 0.83659,2.81296 0.38016,4.18251l-4.18171,4.25855c-0.68464,0.91306 -1.59653,2.20471 -1.82475,3.34601c0.21753,2.57419 -1.06091,3.30189 -2.28093,5.01901c-0.64764,0.91155 -1.12159,3.26964 -2.28093,4.56273c-1.15935,1.29304 -3.05146,1.51208 -3.95362,2.88973c-0.90228,1.37768 -0.54003,0.95114 -1.14047,1.97719c-0.30023,0.513 1.0313,0.52979 0.45619,1.29277c-0.57511,0.76304 -3.08421,2.23197 -3.57346,2.28137c-0.73776,0.07349 -1.75205,0.56785 -2.35696,0.53232l-1.2165,0.15209c-1.24214,-0.15598 -2.05028,-0.3604 -3.11727,-0.30418c-1.08984,0.0575 -1.13017,0.56023 -2.58506,1.673c-0.68464,0.45652 0.2277,0.53244 0.91237,0.30418c1.82572,-0.22826 3.34454,-0.83638 4.94202,-1.06464l0.76068,0.37901c-0.00764,0.85064 -1.11212,1.91031 -0.91237,2.5095c0.68464,1.59778 1.99839,1.17526 3.49743,2.6616c-2.1333,1.28803 -4.49498,2.79731 -5.47424,1.52091c-5.7932,0.52833 -2.40494,4.74763 -9.12373,3.57414c-3.73983,-0.65319 -10.28288,-4.58885 -0.30412,1.59696c1.5975,0.68482 1.36768,0.07592 2.96521,0.30418c1.82572,0.45652 2.736,2.66233 4.78996,1.29277c0.91288,-0.68478 1.9763,-1.7488 2.88918,-2.20532c2.74082,1.05347 5.70182,4.0299 6.6147,4.94296c0.79875,0.57067 3.08985,0.14817 3.80155,2.73764c1.33613,4.86142 2.54659,6.46336 3.34537,7.37642c0.91286,0.91306 2.1285,1.44435 2.81315,2.35741c0.22967,0.4635 0.30412,2.04591 0.30412,2.43346c-0.22627,1.36955 -0.45619,4.02969 -0.45619,5.39924c0.22821,4.10868 2.35623,19.00952 3.72552,22.43345c0.22819,0.45652 0.68406,-0.91267 1.14047,-0.68441c0.91288,0.22826 1.59617,1.36858 2.50903,1.82509c4.10792,2.51084 3.03913,0.90997 6.91883,5.70342c1.36929,1.59781 0.91179,3.87735 2.05284,5.70342c1.77263,3.77422 4.38401,3.1431 4.25774,4.48669c0.12632,0.86419 -2.35684,0.45554 -2.58506,1.82509c-0.91288,3.65216 3.42089,9.65608 4.33377,12.8517c0.57051,2.16899 -0.23276,0.23884 -1.52062,-0.07592c-0.32196,-0.0787 -2.40139,0.07171 -4.63789,-4.03042c-1.36114,-0.03894 -4.18297,0.24057 -5.32217,-0.22802c-1.56407,-0.64336 -3.04124,0.60836 -3.04124,0.60836c0,0 1.9526,-0.27449 2.05284,-0.15209c0.45628,0.5569 1.36978,0.9306 2.66109,0.68441c1.80282,-0.34373 3.07294,0.80898 3.34537,1.06464c0.68564,0.64346 2.86098,3.851 3.87758,4.63878c4.2946,2.59414 6.73643,10.89306 4.33377,13.8403c-3.19503,3.19564 -3.22267,1.18305 -7.14692,5.24714c-0.22821,0.68295 1.59638,-0.22848 2.05284,0.22802c0.91288,0.68478 0.86751,2.59212 1.82475,2.73764c2.01094,0.30576 1.82438,1.82536 2.50903,1.36882c4.56435,-2.96738 0.90979,-5.24751 5.70233,-4.56273c7.75935,1.14127 20.12497,1.76499 18.09539,17.1863c-0.34232,1.94022 -2.4765,4.35523 -3.1933,7.6806c-0.36896,1.71162 -1.70173,2.7454 -2.88918,3.87832c-1.18745,1.13295 -1.52865,2.39525 -3.1933,2.73764c-1.36931,0.45654 -3.34512,-2.12991 -3.80155,-0.98859c-0.15936,0.321 -0.20607,0.5761 -0.22797,0.8365l2.43299,0.60836l-1.2165,1.14068c1.85691,1.07423 4.62065,1.1245 -1.52062,2.81369c-0.68464,0.22826 -0.75995,0.00027 -1.44459,-0.45627c-0.22821,0 -0.76019,-1.44487 -0.9884,-1.44487c-1.96754,0.6537 -3.68487,1.694 -5.47424,2.6616c-0.68469,2.19075 3.42089,-0.68502 4.33377,0.45627c0.91288,0.91306 -0.1517,3.34537 -0.83634,4.48669c-1.82572,2.96736 -6.15715,-0.07656 -8.66754,0.8365c-0.68464,0.22826 -2.96558,1.06439 -2.28093,1.52091c0.7735,-0.1684 1.30411,-0.16694 1.74871,-0.07592c0.2152,-0.20599 0.44453,-0.38023 0.76031,-0.38023c0.94736,0 3.49865,0.24223 3.87758,0.68441c0.37906,0.44218 1.18832,1.45652 0.30412,1.14068c-0.8842,-0.31574 -1.16742,-0.82241 -1.67268,-0.38023c-0.16457,0.14401 -0.77345,0.41576 -1.29253,0.68441c0.48813,0.72062 1.1627,1.42053 2.81315,1.44487c0.85821,0.94598 1.0592,1.16336 3.1933,1.673c4.14237,-0.61737 6.2327,-1.21746 9.65595,0.15209c0.91288,0.22823 -0.76019,0.83604 -0.9884,1.74905c-0.34257,2.38586 0.56613,2.32768 0.07591,4.25855c-0.68464,2.28271 -5.32093,1.74842 -7.60311,2.88973c-0.91288,0.68478 -0.22748,3.26972 -1.36856,3.72623c-1.32897,0.61216 -2.65972,-1.67376 -5.17011,-0.07592c-2.51036,1.59783 -3.80022,0.15148 -6.31058,1.29277c-1.1411,0.45652 -0.91164,2.5095 -2.28093,2.5095c-2.05396,0 -7.44995,-3.34576 -9.50388,-3.80228c-1.59753,-0.22826 -11.70842,1.75041 -12.39306,-0.76046c-0.22821,-1.14127 2.66233,0.00088 0.38016,-1.59696c-1.36878,-0.91301 -0.91211,0.91218 -1.36856,1.59696c-0.45643,0.22909 -1.06431,0.2285 -1.29253,-0.22802c0.50465,-1.12696 0.91262,-1.74905 0.22797,-1.74905c-0.68464,-0.22826 -0.60788,1.67312 -1.29253,1.44487c-0.68564,-0.22823 -0.22785,-0.98823 -0.68428,-1.673c-1.5975,-2.05435 -0.30376,1.52103 -0.9884,1.29277c-2.73863,-0.91306 -3.95325,-5.24751 -4.63789,-4.56273c-0.91288,1.14132 1.52074,2.35668 1.29253,3.72623c-0.22821,2.28261 -12.92504,-0.38059 -13.38147,0.30418c-0.68464,1.14132 2.27984,0.56099 1.67268,3.19391c-0.22821,0.6849 -1.92163,0.70144 -2.58506,0.53232l-1.2165,-0.30418c-1.14107,-0.68478 -3.87698,-2.43368 -5.01805,-1.97719c-1.36941,0.68478 -0.30376,2.20471 -0.9884,3.34601c-0.45752,0.45654 -0.304,-1.06427 -0.53222,-1.74905c-0.45645,-1.14129 -1.90014,-2.3569 -3.04124,-3.26996c-2.96682,-2.96736 -8.39811,-3.38224 -14.674,-0.68441c-3.5783,3.19635 -3.7997,8.89646 -7.22295,10.49429c-2.73858,1.14127 -7.5261,-5.55084 -9.35182,-6.46387c-0.08564,-0.05135 -0.11313,0.0146 -0.15206,0c0.34242,0.47056 1.69293,1.95845 -0.53222,1.44487c-2.73858,-0.68478 -6.613,-3.49856 -9.80801,-2.58555c-1.1411,0.22826 -0.68382,2.35717 -1.59665,2.81369c-1.36929,0.45654 -3.89705,2.3313 -5.47424,2.58555c-1.1755,0.18952 -2.0197,0.47024 0.15206,1.14068c-0.45643,1.14129 -2.05233,2.20532 -2.96521,2.20532c-1.36941,-0.22826 -1.06392,-2.43283 -1.97681,-3.57414c-0.34232,-0.57065 -1.61592,-1.34084 -2.66109,-1.21673c-1.04517,0.12411 -1.85976,1.14421 -2.66109,1.21673c-1.60273,0.14491 -1.74871,-0.56965 -1.74871,-1.82509c0,-1.59783 4.56174,-2.35741 4.78996,-2.35741c2.93385,0.65608 6.38624,-1.97667 7.07089,-2.88973c0.45655,-0.22823 0.07579,-1.14056 0.53222,-1.36882c0.45645,-0.4564 1.14022,-0.30406 1.59665,-0.53232c1.59753,-1.36955 0.37928,-1.97658 1.97681,-3.11787c0.68464,-0.45764 3.49706,-0.76033 4.18171,-0.98859c0.68464,-0.45652 0.68391,-1.4446 1.36856,-1.90114c1.14107,-1.14127 2.66045,-1.36809 3.80155,-2.73764c0.68464,-0.91306 1.13959,-6.08328 2.73712,-6.76806c0.91284,-0.22826 1.29202,1.52079 2.2049,1.74905c1.8175,-0.77024 2.8994,-1.04899 3.87758,-1.52091c0.60226,-0.29055 -0.47833,-1.40982 -0.30412,-2.20532c0.38135,-1.74138 1.74526,-2.66223 8.13532,-1.52091c7.59953,0.84774 5.8551,3.60164 9.65595,3.11787c4.08023,-0.52005 3.07808,1.78789 5.24614,0.07592c1.36946,-1.14132 0.19442,-3.73224 1.36856,-4.71483c0.92296,-0.77236 6.84207,-2.58467 8.21136,-4.18251c1.36929,-1.59783 -2.28042,-1.82551 -3.1933,-1.14068c-1.1411,0.45649 -1.82416,0.76033 -2.96521,0.98859c-0.68464,0 -1.21613,-0.98871 -1.90078,-0.76046c-5.40127,1.44572 -2.96154,5.09717 -11.0245,2.05323c-2.60627,-0.98392 -1.51953,-4.8658 -3.57346,-6.92015c-1.82572,-1.82609 -5.70109,0.98918 -7.98326,-0.15209c-2.24305,-2.31957 3.95362,-1.25484 4.10568,-2.43346c0.07606,-0.58933 -2.87495,-0.23288 -4.10568,-0.98859c-1.23073,-0.75571 -0.74126,-2.64249 -1.14047,-3.42205c-0.22821,-0.45649 -0.45594,0.91255 -0.91237,0.91255c-1.59753,0.22826 0.45915,-1.59781 -5.01805,0c-0.68464,0 -1.13923,1.58126 -1.74871,1.36882c-3.26994,-1.14042 -1.97608,0.83674 -3.34537,0.38023c-1.14107,-0.22826 -2.20514,-1.14017 -1.74871,-2.05323c-1.36819,-1.06537 0.83561,-0.45615 2.2049,-0.68441c-0.18425,-0.64058 -3.57621,-0.19108 -4.63789,-1.82509c-0.39658,-0.61034 2.6398,-1.09294 2.73712,-1.673c0.15158,-1.67373 0.30412,-2.35654 -3.72552,-2.88973c-0.30412,-0.03925 1.15966,-1.31772 2.96521,-1.36882c1.76134,-0.04991 2.33351,-2.51111 4.71393,-0.98859c1.36929,-0.45654 3.19243,-1.3687 5.32217,-1.90114c1.10701,-0.27676 2.20429,0.76058 5.47424,-0.8365c3.65146,-0.91306 7.29825,-4.18083 8.66754,-7.37642c-0.07593,-1.82534 -0.93086,-0.68512 -0.76031,-3.57414c0.0853,-1.44453 1.75093,-1.97225 2.05284,-3.80228c0.30191,-1.83006 -1.63558,-1.55766 -1.2165,-4.48669c0.0863,-0.60316 -0.75537,-1.61788 -3.4214,-1.44487c-3.07895,0.19991 -2.57102,2.24085 -2.88918,2.35741c-0.78469,0.28768 -1.21387,-0.98251 -1.74871,-1.14068c-0.82756,-0.24461 -2.30806,0.60751 -2.50903,0.53232c-0.25765,-0.09651 -0.39487,-0.54351 -0.45619,-0.68441c-0.2416,-0.2999 0.84583,-0.63744 2.12887,-1.74905c1.10217,-0.95489 2.57498,-1.07846 4.86599,-2.35741c1.15154,-0.64287 1.72018,-0.88266 2.12887,-1.59696c0.47699,-0.83334 0.3023,-1.64855 0.38016,-1.74905l4.4098,-2.28137c1.12202,0.11019 2.84089,-0.21088 5.01805,-0.98859c0.45645,-0.22826 -0.60874,-1.52103 0.07591,-1.29277c1.59753,0.22826 2.66026,1.90102 4.25774,2.12928c3.19503,0.45732 3.67591,-1.42095 5.17011,-0.07592c1.14107,1.14127 1.44386,3.72674 2.81315,2.81369c1.36929,-0.91306 -1.14073,-3.42117 -0.68428,-5.01901c0.10528,-0.42099 1.09305,-0.56919 2.35696,-0.22802c-0.11143,-0.33214 1.01553,3.38482 1.2165,3.57414c0.05022,0.04736 0.96381,1.26559 2.43299,0.91255c0.38149,-0.09169 1.06993,-0.75255 1.67268,-0.98859c0.56484,-0.22108 1.88866,-0.98655 -0.53222,-0.38023c-0.52283,0.13092 -0.97502,0.63027 -1.14047,0.60836c-0.57022,-0.07553 -1.248,-0.54388 -1.44459,-0.76046c-0.57499,-0.63302 -1.50846,-2.71452 -1.52062,-2.88973c-0.04934,-0.70098 -1.10446,-3.54426 -0.9884,-4.18251c0.22819,-1.36955 1.59602,-2.50899 2.73712,-3.42205c0.91288,-0.68478 3.19343,0.00063 2.96521,-1.14068c-0.45645,-1.36955 -2.96497,0.15282 -3.4214,-1.21673c-0.7563,-8.15999 4.56186,-2.88827 4.56186,-5.62737c0.22821,-1.36955 -1.59702,-0.68353 -0.91237,-2.28137c0.68464,-1.59783 1.97693,-1.67203 1.74871,-3.4981c-0.22821,-3.42392 -3.41967,1.14056 -6.6147,1.36882c-2.05396,0 1.90117,-3.80126 1.2165,-5.62737c-0.45643,-0.91306 -1.59614,1.82522 -2.50903,1.59696c-2.73858,-0.91306 -0.38775,-3.00683 -0.9884,-4.25855l-2.73712,-5.70342c-0.22821,-2.73915 6.46252,-10.19011 6.69073,-10.19011c0.45655,0.22826 0.91211,0.68453 1.36856,0.45627c0.8032,-0.87215 -1.11979,-1.07522 0.07591,-1.52091c0.44833,-0.16713 1.89708,0.21431 2.66109,0.68441c0.83328,-0.38638 1.5205,-0.95012 1.74871,-1.74905c0.45641,-1.36777 -1.97608,0.15233 -3.34537,-0.07592c-0.91286,-0.22826 -1.82411,-1.36894 -2.96521,-1.14068c-1.36929,0.45654 -2.05211,2.28115 -3.4214,2.73764c-1.14105,0.45834 -2.50839,-0.45627 -3.64949,-0.22802c-1.36929,0.45654 -2.05223,1.59671 -3.1933,2.05323c-0.45643,0.23008 -1.14034,0.2285 -1.36856,-0.22802c-0.22821,-0.68478 1.14083,-1.82497 0.45619,-2.05323c-0.68464,-0.22826 -0.45592,1.3686 -0.91237,1.82509c-0.22819,0.23008 -0.68416,0.00024 -0.91237,-0.22802c-1.1411,-1.36955 -1.1391,-4.79063 -3.64949,-5.24714c-3.19503,-0.68478 1.14171,3.19194 -1.14047,6.8441c-0.91286,1.36955 -2.05235,-2.28064 -2.96521,-3.65019c-3.30914,-4.33693 -3.41665,-4.03161 -4.48583,-3.11787c-0.53458,0.45688 -0.36923,6.21858 -1.14047,6.31178c-0.77121,0.09318 -2.42438,-5.55009 -2.96521,-7.14828c-1.082,-4.03426 -0.27004,-4.63817 0.83634,-4.71483c0.20498,-0.01419 0.58869,2.18785 1.06443,3.11787c0.47575,0.93002 1.04534,0.58951 0.9884,0.30418c-1.01619,-5.24997 0.68258,-4.86495 3.87758,-8.5171c5.93363,-6.61952 -4.10962,1.14429 3.1933,-5.47528c0.68464,-0.68478 2.28066,-0.6839 2.73712,-1.59696c0.91288,-1.59781 -3.42128,-6.84388 -3.64949,-7.30038c-0.22821,-0.68478 1.14034,-0.68405 1.36856,-1.36882c0.23868,-1.76501 -0.53258,-2.28037 0.15206,-4.10646c1.19149,-1.43995 1.67682,-1.49052 3.95362,-0.07592c5.4139,3.201 -1.52062,-2.96578 -1.52062,-2.96578c-1.25564,-0.22692 -3.0771,0.16326 -4.71393,3.95437c-0.95325,2.20768 -0.27128,5.27148 -0.91237,4.25855c-1.17645,-1.85882 -2.23456,-2.62495 -1.82475,-3.04182c0.99174,-1.00881 0.55922,-2.155 -0.9884,-1.36882c-1.01213,0.51417 -1.57755,-2.50926 -1.52062,-2.96578c0.50146,-2.47877 2.25487,-4.26325 8.51548,-8.74524c-3.29267,0.60763 -8.51511,6.53955 -9.12373,5.39924c-0.99814,3.5155 0.60852,4.78951 0.15206,7.30038c-0.22821,0.91306 -1.52026,0.53195 -2.2049,1.21673c-0.45643,0.45654 -0.91237,1.14032 -0.91237,1.82509c-0.22821,0.68478 0.22821,1.59669 0,2.05323c-0.68464,1.82607 -2.50866,2.73667 -3.1933,4.56273c-0.22824,0.45654 1.14068,1.3687 0.68428,1.59696c-1.59753,0.91255 -3.64852,1.59732 -5.47424,0.91255c-1.36929,-0.68478 1.82438,-2.5089 2.50903,-3.65019c1.36929,-1.82609 0.83561,-4.40965 2.2049,-6.23574l3.87758,-3.11787c-0.45643,-1.14127 -2.20466,0.68499 -2.66109,-0.45627c-0.67929,-1.30314 2.06683,-2.92998 1.82475,-3.72623c-1.36929,-0.45654 -1.2919,0.91291 -1.82475,0.53232c0.47502,-0.77961 1.72382,-2.5927 2.58506,-3.65019c-1.3017,0.83385 -2.21427,2.33746 -2.28093,1.82509c-0.07085,-0.5448 1.73455,-2.5471 2.2049,-3.34601c0.60832,-0.68441 0.7706,0.59848 1.14047,0c0.37086,-0.59848 -1.20516,-1.11579 -0.53222,-2.20532c0.34403,-0.55702 -0.55278,-1.11603 -0.60825,-1.74905c-0.1109,-1.26606 0.65652,-2.68118 1.44459,-3.11787c2.68515,-1.42528 2.6605,-3.26984 3.80155,-3.4981c1.1411,-0.22826 3.1933,2.28195 3.1933,1.14068c0,-1.14132 -2.50866,-1.14008 -3.1933,-2.28137c-1.59748,-3.19564 7.75505,-4.79087 7.98326,-4.79087c0.68464,-0.68441 -2.96521,0.2286 -2.96521,-0.68441c0,-1.3696 2.28066,-1.59623 2.73712,-2.96578c0.45643,-0.68478 -1.36819,0.45591 -2.05284,1.14068c-1.5975,1.14127 -1.36783,1.59659 -2.73712,2.28137c-2.7814,1.49794 -5.10063,4.48537 -7.07089,4.10646c-0.25778,-0.30576 -0.23646,-0.23008 -0.71576,-0.7113c-1.01383,-1.01782 -1.23942,-1.30248 -2.02136,-2.40657c-0.37901,-0.63671 -0.72041,-1.39732 -0.91237,-2.35741c-0.22821,-0.68478 1.59629,0 2.28093,0c1.82574,0 3.64862,0.91284 5.24614,0.22802c2.05396,-0.91301 -13.15435,-0.53086 -11.32863,-3.26996c1.36931,-1.82607 8.13506,0.53283 8.59151,-0.38023c0.91286,-2.28261 -1.5786,-2.46799 -0.76031,-3.95437c0,0 1.36754,-4.10619 3.1933,-4.56273c0.82437,-0.40614 2.7413,2.08596 3.04124,1.44487c0.29994,-0.64107 -2.2049,-2.73764 -2.2049,-2.73764c0.34232,-0.7989 -5.41054,3.73227 -6.46264,2.96578c-0.1309,-0.09537 0.39651,-1.332 1.14047,-2.43346c0.264,-0.39089 0.73309,-0.42121 1.67268,-1.36882c0.32118,-0.32392 -0.2858,-0.64416 -1.52062,-1.29277c-0.87415,-0.45917 -1.14874,2.70265 -1.59665,1.21673c-0.21457,-0.71179 0.1615,-1.59586 -2.28093,-1.673c-0.45456,-0.01433 -2.56632,-1.35648 -2.73712,-3.57414c-0.08542,-1.10883 1.7447,-0.56724 1.52062,-1.59696c-0.06642,-0.3052 -2.1078,0.36261 -1.82475,-1.74905c-0.18082,0.1728 -0.97271,1.52972 -1.67268,0.91255c-2.29329,-2.02198 -1.85839,-2.6046 -1.2165,-3.80228c0.39607,-0.73904 0.99509,-1.56839 1.06443,-0.60836c0.0491,0.68015 0.88717,0.94589 1.2165,0.91255c0.65864,-0.06658 0.43319,-0.6718 0.15206,-2.5095c-0.18401,-1.20281 1.09132,-1.64156 1.29253,0.38023c0.09294,0.93399 1.28649,1.94226 1.59665,1.74905c0.76661,-0.47735 0.57212,-0.43817 1.44459,-1.82509c0.43806,-0.69346 -0.62448,-1.48748 -0.22797,-2.12928c0.39653,-0.6418 2.2774,-1.14056 2.50903,-0.91255c2.21347,2.18145 0.27128,8.02691 0.07591,8.89733c-0.25619,1.14134 0.59236,2.74701 1.52062,2.96578c1.4861,0.35017 1.21231,2.21177 1.74871,2.43346c1.30868,0.54103 2.60391,-0.41807 2.88918,-0.76046c0.28527,-0.34239 2.22553,-1.86975 1.06443,-1.74905c-1.19416,0.12403 -2.1459,-0.12571 -1.97681,-0.60836c0.81216,-2.31913 -0.10352,-3.07784 0.15206,-3.95437c0.36215,-1.24206 0.81739,-2.75377 1.44459,-1.97719c2.80673,3.47525 2.79235,1.68023 1.67268,0.30418c-0.36349,-0.755 -1.94944,-2.54644 -0.9884,-3.34601c0.94935,-0.78992 4.24842,1.34539 1.06443,-1.59696c-1.74833,-1.61567 -1.25382,-3.02586 0.53222,-3.80228c1.1411,-0.68478 0.68355,3.65046 2.05284,3.19391c1.82574,-0.45652 -1.90229,-5.85639 0.83634,-4.25855c3.65144,2.05435 5.85439,1.2929 5.85439,1.06464c0.68464,-2.96738 -2.43312,-3.19231 -2.2049,-6.15969c0,-1.14132 1.90051,2.12991 2.35696,0.98859c0.91286,-1.59778 -0.60837,-4.33372 -0.38016,-5.93156c0,-0.68478 1.29216,0.38023 1.97681,0.38023c1.59753,0.6866 1.44396,1.29363 2.58506,-0.07592c0.91284,-1.14129 -0.5012,-1.19568 -0.45619,-2.5095c0.22014,-2.62896 0.93819,-1.97319 1.74871,-2.88973c0.81055,-0.91651 -0.22821,-0.98823 0,-1.673c0.6344,-0.64051 2.08724,-3.29685 2.73712,-3.4981zM223.48935,82.85252c0.43339,-0.14778 0.78866,-0.05047 1.06443,0.30418c0.55158,0.7093 1.27041,0.45907 1.90078,0.38023c0.63036,-0.07884 0.9324,-0.38838 1.44459,-0.15209c0.63027,0.03942 0.17773,0.86483 0.53222,1.14068c0.35458,0.27583 0.85914,-0.55167 1.29253,0c0.43336,0.55169 -0.4085,0.97477 -0.68428,1.36882c-0.27578,0.39405 -0.71262,-0.63046 -0.9884,0c-0.27748,0.63048 1.29722,-0.06916 0.07591,1.90114c-1.22134,1.97032 -1.27596,2.00276 -1.74871,2.35741c-0.47285,0.35465 -0.21712,0.89043 -0.53222,1.52091c-0.31517,0.63048 -0.96629,-0.0256 -1.59665,-0.38023c-0.63039,-0.35465 0.96006,1.08537 0.68428,2.6616c-0.27578,1.57622 -0.90133,0.5814 -1.2165,2.43346c-0.31507,1.85206 -0.96836,2.13826 -0.45619,2.96578c0.51219,0.82752 0.168,1.32597 -1.36856,0.38023c-1.53653,-0.94571 -1.62429,-1.28655 -0.83634,-4.71483c0.78797,-3.4283 1.30983,-4.83097 1.90078,-5.85551c0.59122,-1.02456 1.67198,-1.16419 0.60825,-2.6616c-1.06375,-1.49738 -2.39015,-1.4822 -1.44459,-2.58555c0.47276,-0.55167 0.93517,-0.91693 1.36856,-1.06464zM246.45061,91.74985c-0.394,0.55169 -0.20595,1.64533 -0.83634,2.43346c-0.63036,0.7881 -1.06443,1.18079 -1.06443,2.20532c0,1.02449 -0.35802,1.61078 -0.9884,1.21673c-0.39397,-0.39405 -0.23649,-0.9471 0,-2.12928c0.23639,-1.18217 1.12665,-1.41722 1.52062,-2.20532c0.29549,-0.59109 1.13961,-1.5141 1.36856,-1.673c0.0764,-0.05305 0.09854,0.01411 0,0.15209zM231.70058,116.6928c-2.34013,1.17027 -2.90485,0.80109 -3.57346,0.91255c-0.66861,0.11145 1.23275,-1.66835 2.73712,-2.28137c0.75218,-0.30637 1.5113,-0.56773 1.82475,-0.45627c0.31342,0.11145 0.12593,0.62696 -0.9884,1.82509zM236.49054,116.76897c0.73046,0.01265 2.50375,0.2613 3.19871,1.03315c2.04929,2.27604 1.57532,2.66254 4.49887,5.19796c0.19067,0.19071 0.82131,0.66733 0.66584,1.06926c-1.63132,2.94446 -3.06715,3.61283 -5.24614,3.57414c0.37261,-0.4783 0.7899,-1.00509 1.06443,-1.29277c0.70961,-0.74357 -0.9712,0.12581 -3.34537,1.06464c-1.19713,-0.14041 -3.56633,0.01363 -5.24614,-0.07592c-0.22821,-0.22826 -1.3098,-0.46932 -0.91237,-1.90114c1.70986,-0.8897 1.32591,-0.02166 2.28093,-0.15209c0.09119,0.05451 0.34585,0.41101 0.38016,0.22802c2.09084,0.30418 3.68757,0.03803 3.87758,-0.53232c-0.60297,-0.65117 -0.91237,0.41802 -1.97681,0.07592c-0.32451,-0.10513 -1.33985,0.0494 -1.52062,-0.07592c-0.14717,-0.14175 0.08078,-0.75741 0.15206,-0.8365c0.19878,-0.16107 1.07903,-0.44805 1.06443,-0.76046c0.2861,-0.15051 0.18627,-0.30228 0.53222,-0.60836c1.20246,-0.05006 1.6247,0.40213 2.43299,-0.91255c-0.0346,-0.27685 -1.06964,0.24748 -3.4214,0.15209c-0.29456,-0.56556 -1.35725,-0.90749 -1.59665,-1.29277c0.55611,-0.08374 1.10769,-0.01966 1.90078,0.45627c0.95045,0.56909 1.59665,0.45615 1.14047,0.07592c-0.43563,-0.3631 -2.09916,-1.62392 -3.57346,-2.05323c0.65547,-1.45382 2.5852,-2.45049 3.64949,-2.43346zM240.97625,133.34666c1.50583,-0.27866 0.55207,1.17667 -0.22797,1.90114c-0.78004,0.72446 -2.69301,3.23107 -4.86599,5.62737c-0.4457,0.44581 -0.42599,0.75583 -0.76031,1.36882c-0.33429,0.61299 -0.57866,0.56714 -1.74871,-0.38023c-1.17008,-0.94737 -0.71445,-0.18691 -0.38016,0.76046c0.33429,0.94737 0.30412,0.79645 0.30412,1.52091c0,0.72446 -0.13233,1.62772 -0.91237,2.12928c-0.78004,0.50158 -2.01279,0.375 -2.73712,0.15209c-0.72433,-0.2229 -0.54789,0.95319 -1.2165,1.06464c-0.66861,0.11145 -1.41907,-0.45686 -1.14047,-1.29277c0.27858,-0.83592 1.09516,-0.77615 1.59665,-1.44487c0.50146,-0.66874 -0.37553,-1.22196 -0.9884,-1.44487c-0.6129,-0.2229 0.08185,-0.41101 1.14047,-0.91255c1.05862,-0.50156 0.3796,-0.89223 -0.45619,-0.8365c-0.83576,0.05573 -0.99887,0.88758 -1.44459,1.44487c-0.44575,0.55726 -1.70346,0.87191 -2.2049,0.76046c-0.50146,-0.11145 -0.07022,-1.19699 0.9884,-1.97719c1.0586,-0.78019 -0.00465,-0.88293 0.60825,-2.05323c0.6129,-1.17037 1.30822,-0.69487 1.97681,-1.14068c0.66861,-0.44437 1.43413,-0.68894 0.9884,-0.07592c-0.22286,0.30649 -0.35862,0.69602 -0.45619,0.98859c0.28524,-0.43939 1.15543,-0.92002 2.50903,-1.59696c1.56016,-0.78019 1.72319,-0.1161 1.44459,0.60836c-0.27858,0.72446 0.1979,0.71461 0.53222,0.38023c0.33432,-0.33436 0.7661,-1.12036 1.82475,-1.06464c1.05862,0.05573 0.90194,-0.26878 0.45619,-0.38023c-0.44572,-0.11145 -0.48638,-0.50735 -0.15206,-1.06464c0.33429,-0.55729 3.81781,-2.76319 5.32217,-3.04182zM245.61439,147.18708c0.38719,-0.07184 0.80615,0.05166 1.14047,0.53232c0.89147,1.28175 0.94257,2.0846 0.60825,3.42205c-0.33587,1.33748 0.28369,0.90386 0.22797,2.96578c-0.05572,2.06194 -0.71039,1.89591 -1.82475,1.673c-1.11434,-0.22293 -1.03483,-0.04178 -2.2049,-1.82509c-0.50132,-0.94739 -0.42079,-0.51258 -0.53222,-1.29277c-0.11143,-0.78022 0.93734,-0.85217 0.38016,-1.52091c-0.55718,-0.66871 -0.39989,-1.82568 0.38016,-2.6616c0.48752,-0.52246 1.17942,-1.17305 1.82475,-1.29277zM246.45061,218.28957c1.12531,0.12036 2.75162,0.6782 3.11727,1.21673c-0.008,2.03853 0.59044,3.36681 0.83634,3.26996c2.03629,-0.80248 2.15558,-0.82465 2.58506,0.30418c0.16909,0.44445 -6.6147,3.57414 -6.6147,3.57414c-1.42595,-1.76934 -2.56559,-2.86839 -2.58506,-5.77946c-0.00706,-1.12 -0.1133,-1.74854 1.74871,-2.5095c0.19683,-0.08079 0.53728,-0.11608 0.91237,-0.07592zM242.19299,220.3428c0.20671,-0.08198 0.4467,0.1426 0.76031,0.45627c0.41818,0.41826 0.6844,1.33081 0.76031,1.82509c0.07603,0.49431 -0.07603,0.34214 -0.68428,0.15209c-0.60825,-0.1901 -0.19009,-0.87454 -0.76031,-1.29277c-0.19026,-0.22814 -0.49414,-0.49431 -0.30412,-0.91255c0.04671,-0.10391 0.15912,-0.20076 0.22797,-0.22802zM333.50618,293.42272c0.63156,0.88437 -0.90775,0.58843 -1.44459,0.30418c-0.53682,-0.28428 -1.06687,-0.08551 -1.82475,-1.06464c-0.25264,-0.28425 0.00827,-0.88802 0.60825,-1.14068c0.6,-0.25267 2.02951,1.0168 2.66109,1.90114zM290.09244,306.80675c0.53684,0.66326 1.12419,0.48324 1.97681,0.98859c0.85264,0.50533 2.01055,1.54671 0.68428,1.673c-1.3263,0.1263 -1.6739,1.3642 -2.05284,1.90114c-0.37894,0.53694 -1.45989,1.03643 -2.28093,0.15209c-0.82104,-0.88434 -1.63772,-2.26971 -2.58506,-2.58555c-0.94736,-0.31584 -2.48204,-0.3054 -1.97681,-0.68441c0.50526,-0.37901 1.03407,-0.63416 1.44459,-0.76046c1.73682,-0.47367 1.92311,0.13674 2.96521,-0.68441c0.52103,-0.41052 0.79603,-0.63611 1.06443,-0.60836c0.26841,0.02764 0.4919,0.27671 0.76031,0.60836z"/></g><path d="M247.81766,192.56097c0.91284,-0.91305 1.14106,-2.51086 2.05395,-3.19564c1.14106,-0.68476 2.28216,-0.68476 3.42323,-0.91305c0.45643,10.72822 -15.29052,13.01083 -5.47718,4.10868z"/><path d="M264.39568,338.54537c0.40829,0 0.20916,0.15379 -0.45627,0.45627c-0.64516,0.24196 -1.3082,-0.19212 -0.15209,-0.38023c0.289,-0.04697 0.47233,-0.07592 0.60837,-0.07592zM256.79136,343.71684c0.10075,-0.00657 0.22339,0.07154 0.30418,0.15209c0.16131,0.16134 0.42951,-0.30048 0.45627,0.07592c0.02687,0.37641 -0.00382,0.59462 -0.38023,0.8365c-0.37536,0.24198 -0.27267,0.44627 -0.38023,1.06464c-0.08067,0.48385 -0.46774,0.30856 -1.59696,0.22802c-1.12852,-0.08067 -1.59774,-0.76496 -1.14069,-0.68441c0.45696,0.08064 0.5906,-0.00844 0.45627,-0.30418c-0.13442,-0.29688 0.25425,-0.33119 0.68441,-0.30418c0.43019,0.02687 0.91637,-0.86802 1.29278,-0.76046c0.37621,0.10766 0.38935,0.00925 0.22802,-0.15209c-0.08079,-0.08055 -0.02482,-0.14479 0.07592,-0.15209zM258.38808,344.62927c0.04867,-0.0073 0.13408,0.03553 0.22802,0.07592c0.24201,0.34957 -0.12046,0.67597 -0.22802,0.38023c-0.08079,-0.22193 -0.14625,-0.43437 0,-0.45627zM260.13737,345.69379c0.07714,0.00316 0.16085,0.10707 0.22802,0.22802c0.18811,0.51086 -0.20512,0.90805 -0.60837,0.98859c-0.4033,0.08055 0.30418,-0.66597 0.30418,-0.98859c0,-0.1611 -0.00146,-0.23045 0.07592,-0.22802z"/><path d="M261.73384,351.39721c0.08739,-0.04697 0.26817,-0.0404 0.45627,0c0.48397,0.21512 0.88488,0.36721 1.36882,0.15209c0.48394,-0.21512 1.20748,-0.02307 1.36882,0.38023c0.16134,0.40322 0.71974,0.10678 0.98859,0.45627c0.2689,0.34952 -0.00925,0.66597 0.15209,0.98859c0.16146,0.32256 -0.25503,0.10204 -0.22802,0.53232c0.02701,0.43024 -0.06592,0.2504 -0.68441,0.30418c-0.61834,0.05378 -0.46472,-0.43851 -0.76046,-0.30418c-0.29579,0.13433 -0.07524,-0.63538 -0.53232,-0.60837c-0.457,0.02701 -0.7697,-0.17966 -0.60837,0.30418c0.16134,0.48385 -0.19212,0.36234 -0.38023,0.22802c-0.18823,-0.13433 0.23807,-0.44313 -0.38023,-0.22802c-0.61846,0.21512 -0.88184,-0.1381 -0.53232,-0.38023c0.34964,-0.24189 0.30061,-1.22518 -0.07592,-1.52091c-0.18811,-0.14795 -0.23945,-0.25722 -0.15209,-0.30418z"/></g></g></g></g></svg>